<svg width="192" height="192" viewBox="0 0 192 192" fill="none" xmlns="http://www.w3.org/2000/svg">
<circle cx="95.5" cy="95.5" r="95.5" fill="#F1F7FE"/>
<mask id="mask0_1_524" style="mask-type:alpha" maskUnits="userSpaceOnUse" x="0" y="0" width="191" height="191">
<circle cx="95.5" cy="95.5" r="95.5" fill="#F1F7FE"/>
</mask>
<g mask="url(#mask0_1_524)">
<path d="M114.352 22.6676C95.5934 9.44213 77.6639 17.7627 71.3474 31.3465C63.9491 47.2572 74.3743 50.5189 65.3893 57.8636C62.4301 60.2825 61.3838 64.1048 62.5667 66.5676C64.8644 71.3518 70.1547 74.7941 66.2649 77.8133C60.3723 82.3863 62.9306 88.5124 71.3914 94.3506H123.972C123.972 94.3506 139.364 86.8198 131.485 79.9318C122.419 72.0057 132.608 73.1294 132.178 64.4428C131.904 58.9169 126.002 57.2536 126.951 50.9267C128.375 41.4371 125.257 25.3884 114.352 22.6676Z" fill="#373737"/>
<path d="M56.5579 140.963C59.9845 140.64 62.3683 144.292 60.6931 147.299C60.0574 148.44 59.9782 149.809 60.4782 151.016L72.8233 180.808C75.5591 187.41 70.7067 194.674 63.5599 194.674C61.0675 194.674 58.6644 193.745 56.8192 192.07L48.0867 184.141C44.1242 180.542 41.3613 175.815 40.1712 170.597L33.9004 143.101L56.5579 140.963Z" fill="#FFDABB"/>
<path d="M152.016 179.729C151.522 181.906 150.393 183.886 148.772 185.42L138.796 194.856C135.386 198.08 129.773 195.663 129.773 190.97L134.526 151.169C134.644 150.183 134.461 149.185 134.002 148.304C132.187 144.826 134.965 140.724 138.868 141.118L160.279 143.28L152.016 179.729Z" fill="#FFDABB"/>
<path d="M138.604 153.627C133.599 172.567 133.948 198.818 133.948 198.818L123.256 198.98L107.143 199.235L88.365 199.525L86.1433 199.55L76.3372 199.704L61.3641 199.934C61.3641 199.244 61.3474 198.547 61.3216 197.857C61.3132 197.491 61.3049 197.125 61.2958 196.776C61.27 196.232 61.2533 195.695 61.2191 195.167C61.1766 194.375 61.1341 193.584 61.0999 192.792C60.9975 191.362 60.8873 189.94 60.7597 188.536C60.743 188.315 60.7172 188.102 60.7089 187.881C60.7005 187.566 60.6921 187.242 60.6831 186.945C60.6573 186.4 60.6405 185.872 60.6064 185.336C60.5639 184.544 60.5214 183.753 60.4788 182.961C60.3854 181.531 60.2746 180.118 60.147 178.705C60.1128 178.296 60.0787 177.896 60.0445 177.488C59.9936 177.028 59.9511 176.568 59.8995 176.109C59.857 175.683 59.8145 175.249 59.7636 174.832C59.6869 174.142 59.6186 173.47 59.5335 172.798C59.5078 172.628 59.491 172.466 59.4652 172.296C59.4143 171.87 59.3628 171.461 59.3119 171.045C59.261 170.628 59.2094 170.219 59.1501 169.819C59.0909 169.402 59.0309 168.994 58.9801 168.593C58.9208 168.193 58.8608 167.785 58.8016 167.385C58.7423 166.993 58.6907 166.593 58.6231 166.202C58.5639 165.802 58.5039 165.419 58.4356 165.035C58.2572 163.887 58.0696 162.763 57.8821 161.665C57.8312 161.35 57.7796 161.052 57.7204 160.746C57.5754 159.894 57.4137 159.06 57.261 158.243C57.1676 157.758 57.0735 157.289 56.9801 156.822C56.7591 155.681 56.5374 154.6 56.3248 153.579C44.9613 152.574 32.3633 146.769 32.3633 146.769L47.7107 111.715C51.1328 106.268 65.2972 101.994 75.4777 99.5517C81.5892 98.0962 86.2709 97.2876 86.3135 97.2792L86.3218 97.2625L86.577 97.2883L97.541 98.2844L109.152 97.2632V97.2799C109.263 97.2966 142.281 102.975 147.763 111.717L163.11 146.77C163.11 146.766 150.096 152.759 138.604 153.627Z" fill="#367CFF"/>
<path d="M109.152 73.7742V99.5488C109.152 99.5488 106.453 101.575 100.35 101.941C99.754 101.975 99.1155 101.991 98.4518 101.991C94.2128 101.991 91.08 101.319 89.0716 100.681C87.2417 100.102 86.3223 99.5488 86.3223 99.5488V76.5152L109.152 73.7742Z" fill="#F8CFAF"/>
<path d="M100.35 101.941C99.754 101.976 99.1155 101.992 98.4518 101.992C94.2128 101.992 91.08 101.32 89.0716 100.682C87.2417 100.103 86.3223 99.5496 86.3223 99.5496V78.3625L95.4815 82.7634C95.4815 82.7634 93.4292 95.2847 100.35 101.941Z" fill="#F8CFAF"/>
<path d="M111.481 82.8268C111.104 83.2172 110.719 83.5992 110.324 83.97C109.101 85.1224 107.792 86.175 106.386 87.0575C105.187 87.8097 103.918 88.435 102.595 88.8909C101.392 89.305 100.149 89.5775 98.8924 89.7135C97.3316 89.8829 95.7289 89.8313 94.1786 89.5678C92.9057 89.3517 91.6565 88.9871 90.4568 88.4817C89.1106 87.9149 87.8315 87.1753 86.629 86.3158C85.1985 85.2931 83.8747 84.1053 82.6387 82.8261C77.3791 77.3838 77.4244 63.6328 76.155 64.6045C73.2529 66.6937 71.3945 60.4742 71.0313 56.7816C70.6688 53.0891 72.2408 51.5338 73.6914 53.0891C75.1421 54.6436 75.1602 52.9134 75.5652 50.8862C75.6956 50.233 75.8566 49.5861 76.0323 48.9455C76.3014 47.9647 76.6116 46.9971 76.958 46.0449C77.3903 44.857 77.8796 43.6928 78.4289 42.5614C79.0508 41.2809 79.7506 40.0414 80.5335 38.8661C81.3763 37.6016 82.3167 36.4102 83.3596 35.3297C84.4624 34.1865 85.6788 33.1694 86.9942 32.3224C88.4108 31.4106 89.9374 30.7009 91.5261 30.2151C93.3881 29.6448 95.287 29.4092 97.2173 29.4092C99.075 29.4064 100.934 29.6929 102.722 30.2548C104.3 30.7504 105.815 31.4677 107.22 32.3837C108.526 33.2356 109.734 34.2562 110.827 35.4001C111.862 36.482 112.795 37.6727 113.632 38.9358C114.409 40.109 115.103 41.345 115.72 42.6228C116.264 43.75 116.75 44.9093 117.179 46.0923C117.522 47.0389 117.829 48.0016 118.096 48.9762C118.269 49.6071 118.427 50.2435 118.555 50.8862C118.96 52.9134 118.978 54.6436 120.429 53.0891C121.879 51.5338 123.451 53.0891 123.089 56.7816C122.726 60.4749 120.867 66.6944 117.965 64.6045C116.696 63.6335 116.741 77.3845 111.481 82.8268Z" fill="#FCD4B5"/>
<path d="M86.0735 39.9958C90.8793 40.5785 92.6298 42.0362 101.069 46.7904C108.165 50.7883 117.191 54.0082 118.464 55.1075C119.026 55.5934 119.461 53.3097 121.621 52.6356C122.273 52.4321 123.147 39.4206 118.141 30.4796C112.354 20.1437 96.0337 15.9025 84.6075 22.8024C83.5075 23.4668 84.3329 23.8571 81.5061 24.6504C75.6302 26.3005 71.9844 36.2133 71.9844 45.8347C71.9844 55.4561 73.1227 51.3181 74.4326 54.0953C74.9659 55.226 75.4803 49.6841 80.2862 45.408L86.0735 39.9958Z" fill="#373737"/>
<path d="M114.1 128.073C113.829 127.461 113.439 126.907 112.952 126.441C112.464 125.974 111.888 125.603 111.257 125.347C110.602 125.082 109.9 124.946 109.19 124.947C108.196 124.947 107.225 125.213 106.382 125.716C106.18 125.836 105.988 125.968 105.807 126.112C105.625 125.968 105.433 125.836 105.232 125.716C104.388 125.213 103.418 124.947 102.423 124.947C101.707 124.947 101.012 125.081 100.357 125.347C99.723 125.604 99.152 125.972 98.6617 126.441C98.1734 126.907 97.7833 127.461 97.5136 128.073C97.2331 128.71 97.0898 129.386 97.0898 130.081C97.0898 130.738 97.2271 131.421 97.4995 132.117C97.7275 132.698 98.0543 133.302 98.472 133.911C99.1338 134.874 100.044 135.879 101.174 136.898C103.046 138.587 104.901 139.754 104.979 139.801L105.458 140.101C105.669 140.233 105.942 140.233 106.154 140.101L106.632 139.801C106.711 139.752 108.563 138.587 110.437 136.898C111.567 135.879 112.477 134.874 113.139 133.911C113.557 133.302 113.886 132.698 114.112 132.117C114.384 131.421 114.521 130.738 114.521 130.081C114.523 129.386 114.38 128.71 114.1 128.073Z" fill="white"/>
<path d="M84.7107 127.254H86.1488V140.197H84.7107V141.679H89.8313V140.197H88.3932V127.254H89.8313V125.773H84.7107V127.254Z" fill="white"/>
<path d="M84.2805 151.941V154.74H85.6352C85.8209 154.74 85.9955 154.704 86.1592 154.633C86.3228 154.558 86.466 154.457 86.5887 154.331C86.7114 154.204 86.8074 154.056 86.8766 153.887C86.949 153.715 86.9852 153.532 86.9852 153.341C86.9852 153.149 86.949 152.968 86.8766 152.799C86.8074 152.627 86.7114 152.478 86.5887 152.351C86.466 152.224 86.3228 152.125 86.1592 152.053C85.9955 151.979 85.8209 151.941 85.6352 151.941H84.2805ZM84.2805 157.534H82.9258V150.542H85.6352C85.8838 150.542 86.123 150.576 86.3527 150.644C86.5824 150.709 86.7964 150.803 86.9947 150.927C87.1961 151.047 87.3786 151.194 87.5422 151.366C87.709 151.535 87.8506 151.723 87.967 151.931C88.0866 152.14 88.1779 152.362 88.2408 152.599C88.3069 152.837 88.3399 153.084 88.3399 153.341C88.3399 153.724 88.2691 154.087 88.1275 154.428C87.9859 154.766 87.7924 155.062 87.5469 155.316C87.3015 155.569 87.0135 155.769 86.6831 155.915C86.3558 156.062 86.0065 156.135 85.6352 156.135H84.2805V157.534Z" fill="white"/>
<path d="M90.2894 157.534H89.0008V152.312H89.3123L89.7371 152.931C89.9448 152.736 90.1808 152.586 90.4452 152.482C90.7095 152.375 90.9833 152.322 91.2665 152.322H92.4041V153.648H91.2665C91.1312 153.648 91.0037 153.674 90.8842 153.726C90.7646 153.778 90.6607 153.849 90.5726 153.94C90.4845 154.031 90.4153 154.139 90.3649 154.262C90.3146 154.386 90.2894 154.517 90.2894 154.657V157.534Z" fill="white"/>
<path d="M94.5235 150.893C94.5235 151.016 94.4999 151.132 94.4527 151.239C94.4086 151.346 94.3473 151.441 94.2686 151.522C94.1899 151.6 94.0971 151.663 93.9901 151.712C93.8862 151.758 93.7745 151.78 93.655 151.78C93.5354 151.78 93.4221 151.758 93.3151 151.712C93.2112 151.663 93.12 151.6 93.0413 151.522C92.9658 151.441 92.9044 151.346 92.8572 151.239C92.8132 151.132 92.7911 151.016 92.7911 150.893C92.7911 150.773 92.8132 150.659 92.8572 150.552C92.9044 150.441 92.9658 150.347 93.0413 150.269C93.12 150.187 93.2112 150.124 93.3151 150.079C93.4221 150.03 93.5354 150.005 93.655 150.005C93.7745 150.005 93.8862 150.03 93.9901 150.079C94.0971 150.124 94.1899 150.187 94.2686 150.269C94.3473 150.347 94.4086 150.441 94.4527 150.552C94.4999 150.659 94.5235 150.773 94.5235 150.893ZM94.3016 157.534H93.0036V152.312H94.3016V157.534Z" fill="white"/>
<path d="M101.717 157.534H100.433V154.218C100.433 154.127 100.416 154.041 100.381 153.96C100.35 153.879 100.304 153.807 100.244 153.745C100.185 153.684 100.115 153.636 100.037 153.604C99.9581 153.568 99.8747 153.55 99.7866 153.55C99.6985 153.55 99.6151 153.568 99.5364 153.604C99.4609 153.636 99.3932 153.684 99.3334 153.745C99.2768 153.807 99.2312 153.879 99.1965 153.96C99.1651 154.041 99.1493 154.127 99.1493 154.218V157.534H97.8607V154.218C97.8607 154.127 97.8434 154.041 97.8088 153.96C97.7773 153.879 97.7317 153.807 97.6719 153.745C97.6121 153.684 97.5429 153.636 97.4642 153.604C97.3855 153.568 97.3021 153.55 97.214 153.55C97.1259 153.55 97.0425 153.568 96.9639 153.604C96.8883 153.636 96.8207 153.684 96.7609 153.745C96.7042 153.807 96.6586 153.879 96.624 153.96C96.5925 154.041 96.5768 154.127 96.5768 154.218V157.534H95.2882V152.312H95.5997L95.949 152.712C96.1284 152.556 96.3251 152.435 96.539 152.351C96.7562 152.263 96.9812 152.219 97.214 152.219C97.45 152.219 97.6798 152.265 97.9032 152.356C98.1298 152.447 98.328 152.604 98.4979 152.829C98.5766 152.718 98.6663 152.624 98.767 152.546C98.8677 152.468 98.9731 152.404 99.0833 152.356C99.1965 152.307 99.313 152.273 99.4326 152.253C99.5521 152.231 99.6701 152.219 99.7866 152.219C100.054 152.219 100.304 152.271 100.537 152.375C100.773 152.479 100.978 152.622 101.151 152.804C101.327 152.983 101.465 153.194 101.566 153.438C101.667 153.682 101.717 153.942 101.717 154.218V157.534Z" fill="white"/>
<path d="M107.556 157.534H107.245L106.744 156.817C106.622 156.931 106.491 157.038 106.352 157.139C106.217 157.237 106.074 157.323 105.923 157.398C105.772 157.469 105.616 157.526 105.456 157.568C105.298 157.611 105.138 157.632 104.974 157.632C104.619 157.632 104.283 157.57 103.969 157.446C103.657 157.323 103.383 157.144 103.147 156.91C102.915 156.673 102.73 156.383 102.595 156.042C102.46 155.701 102.392 155.312 102.392 154.877C102.392 154.47 102.46 154.098 102.595 153.76C102.73 153.419 102.915 153.126 103.147 152.882C103.383 152.638 103.657 152.45 103.969 152.317C104.283 152.18 104.619 152.112 104.974 152.112C105.138 152.112 105.3 152.133 105.46 152.175C105.621 152.218 105.777 152.276 105.928 152.351C106.079 152.426 106.222 152.513 106.357 152.614C106.496 152.715 106.625 152.824 106.744 152.941L107.245 152.322H107.556V157.534ZM106.258 154.877C106.258 154.695 106.223 154.519 106.154 154.35C106.088 154.178 105.997 154.027 105.88 153.897C105.764 153.763 105.627 153.658 105.47 153.58C105.316 153.498 105.15 153.458 104.974 153.458C104.798 153.458 104.631 153.489 104.474 153.55C104.32 153.612 104.184 153.703 104.068 153.823C103.955 153.944 103.865 154.093 103.799 154.272C103.733 154.448 103.7 154.649 103.7 154.877C103.7 155.104 103.733 155.307 103.799 155.486C103.865 155.662 103.955 155.81 104.068 155.93C104.184 156.05 104.32 156.141 104.474 156.203C104.631 156.265 104.798 156.296 104.974 156.296C105.15 156.296 105.316 156.257 105.47 156.179C105.627 156.097 105.764 155.992 105.88 155.862C105.997 155.728 106.088 155.577 106.154 155.408C106.223 155.236 106.258 155.059 106.258 154.877Z" fill="white"/>
<path d="M113.197 157.534H111.62L110.615 155.935L109.6 157.534H108.023L109.869 154.857L108.023 152.283H109.6L110.615 153.78L111.62 152.283H113.197L111.347 154.857L113.197 157.534Z" fill="white"/>
<path d="M136.941 211.016H59.4173L55.7034 168.325C55.5088 166.086 57.3832 164.168 59.7651 164.168H136.593C138.975 164.168 140.849 166.086 140.654 168.325L136.941 211.016Z" fill="#DEDEFF"/>
</g>
</svg>
