<svg width="192" height="192" viewBox="0 0 192 192" fill="none" xmlns="http://www.w3.org/2000/svg">
<circle cx="96.5" cy="95.5" r="95.5" fill="#FCFDFF"/>
<mask id="mask0_1_490" style="mask-type:alpha" maskUnits="userSpaceOnUse" x="0" y="0" width="192" height="192">
<circle cx="96" cy="96" r="96" fill="#C4C4C4"/>
</mask>
<g mask="url(#mask0_1_490)">
<path d="M143.281 169C145.662 169.001 148.018 168.517 150.205 167.577C152.393 166.637 154.365 165.262 156.004 163.535C157.642 161.807 158.911 159.764 159.734 157.53C160.556 155.296 160.915 152.918 160.788 150.541L160.117 137.823C158.546 129.988 152.089 123.813 143.865 122.288L114.17 117.861C111.548 117.454 109.5 114.748 109.462 111.933L108.812 98.9263H80.269L79.597 112.485C79.5312 113.773 79.0242 114.999 78.1611 115.956C77.2981 116.914 76.1316 117.546 74.8579 117.745L45.5342 122.288C37.3142 123.813 30.8519 129.988 29.2828 137.823L28.6119 150.541C28.4849 152.918 28.8436 155.297 29.6662 157.531C30.4888 159.765 31.7579 161.808 33.3963 163.535C35.0346 165.263 37.0077 166.638 39.1952 167.578C41.3827 168.517 43.7387 169.001 46.1194 169H143.281Z" fill="#F8CFAF"/>
<path d="M114.167 117.81C112.265 117.38 110.676 115.214 109.92 112.515L94.4134 134.241L79.8354 112.515L79.4047 110C79.3386 111.871 78.8288 113.651 77.961 115.043C77.0932 116.434 75.9204 117.352 74.6397 117.641L58 121.365V187H133V121.866L114.167 117.81Z" fill="url(#paint0_linear_1_490)"/>
<path d="M148.271 191.515C150.264 191.516 152.236 188.954 154.071 187.863C155.905 186.772 157.565 185.173 158.95 183.163C160.335 181.153 161.418 178.773 162.134 176.163C162.85 173.553 163.185 170.768 163.118 167.973L162.648 148.212C162.648 133.011 156.428 125.03 146.134 121.993L120.458 118.534L97.3215 181.611C97.056 182.336 96.6532 182.944 96.1574 183.369C95.6616 183.793 95.0921 184.018 94.5113 184.018C93.9305 184.018 93.3609 183.793 92.8652 183.369C92.3694 182.944 91.9666 182.336 91.701 181.611L68.564 118.534L42.8832 121.993C32.6009 125.03 26.3703 133.011 26.3703 148.212L25.9047 167.973C25.8385 170.768 26.1737 173.553 26.8902 176.163C27.6068 178.773 28.6901 181.153 30.0757 183.163C31.4612 185.173 33.1208 186.771 34.9554 187.862C36.7901 188.954 38.7625 194.516 40.7551 194.515L148.271 191.515Z" fill="#2F80ED"/>
<path d="M143.655 157.239H119.921C113.901 157.239 113.901 149 119.921 149H143.051C148.785 149 148.785 157.239 143.655 157.239Z" fill="white"/>
<path d="M121.162 151.628V153.884H122.265C122.417 153.884 122.559 153.856 122.692 153.798C122.825 153.738 122.942 153.656 123.042 153.554C123.142 153.452 123.22 153.333 123.276 153.197C123.335 153.058 123.365 152.911 123.365 152.756C123.365 152.602 123.335 152.456 123.276 152.32C123.22 152.181 123.142 152.061 123.042 151.959C122.942 151.856 122.825 151.776 122.692 151.719C122.559 151.659 122.417 151.628 122.265 151.628H121.162ZM121.162 156.136H120.059V150.5H122.265C122.468 150.5 122.663 150.528 122.85 150.583C123.037 150.635 123.211 150.711 123.373 150.811C123.537 150.908 123.685 151.026 123.818 151.165C123.954 151.301 124.07 151.453 124.164 151.621C124.262 151.788 124.336 151.968 124.387 152.159C124.441 152.35 124.468 152.549 124.468 152.756C124.468 153.066 124.411 153.358 124.295 153.633C124.18 153.905 124.022 154.144 123.822 154.348C123.622 154.553 123.388 154.714 123.119 154.832C122.852 154.949 122.568 155.008 122.265 155.008H121.162V156.136Z" fill="#252E51"/>
<path d="M126.056 156.136H125.006V151.927H125.26L125.606 152.426C125.775 152.269 125.968 152.149 126.183 152.065C126.398 151.978 126.621 151.935 126.852 151.935H127.778V153.004H126.852C126.742 153.004 126.638 153.025 126.54 153.067C126.443 153.109 126.358 153.166 126.287 153.24C126.215 153.313 126.158 153.4 126.117 153.499C126.076 153.599 126.056 153.705 126.056 153.818V156.136Z" fill="#252E51"/>
<path d="M129.504 150.783C129.504 150.883 129.485 150.976 129.447 151.062C129.411 151.149 129.361 151.225 129.297 151.29C129.233 151.353 129.157 151.404 129.07 151.444C128.985 151.48 128.894 151.499 128.797 151.499C128.7 151.499 128.607 151.48 128.52 151.444C128.436 151.404 128.361 151.353 128.297 151.29C128.236 151.225 128.186 151.149 128.147 151.062C128.111 150.976 128.094 150.883 128.094 150.783C128.094 150.686 128.111 150.595 128.147 150.508C128.186 150.419 128.236 150.343 128.297 150.28C128.361 150.215 128.436 150.164 128.52 150.127C128.607 150.088 128.7 150.068 128.797 150.068C128.894 150.068 128.985 150.088 129.07 150.127C129.157 150.164 129.233 150.215 129.297 150.28C129.361 150.343 129.411 150.419 129.447 150.508C129.485 150.595 129.504 150.686 129.504 150.783ZM129.324 156.136H128.267V151.927H129.324V156.136Z" fill="#252E51"/>
<path d="M135.363 156.136H134.318V153.464C134.318 153.39 134.304 153.321 134.275 153.256C134.25 153.19 134.213 153.132 134.164 153.083C134.115 153.033 134.059 152.995 133.995 152.969C133.931 152.94 133.863 152.925 133.791 152.925C133.719 152.925 133.651 152.94 133.587 152.969C133.526 152.995 133.471 153.033 133.422 153.083C133.376 153.132 133.339 153.19 133.31 153.256C133.285 153.321 133.272 153.39 133.272 153.464V156.136H132.222V153.464C132.222 153.39 132.208 153.321 132.18 153.256C132.155 153.19 132.117 153.132 132.069 153.083C132.02 153.033 131.964 152.995 131.9 152.969C131.835 152.94 131.768 152.925 131.696 152.925C131.624 152.925 131.556 152.94 131.492 152.969C131.431 152.995 131.375 153.033 131.327 153.083C131.281 153.132 131.243 153.19 131.215 153.256C131.19 153.321 131.177 153.39 131.177 153.464V156.136H130.127V151.927H130.381L130.665 152.249C130.812 152.124 130.972 152.027 131.146 151.959C131.323 151.888 131.506 151.852 131.696 151.852C131.888 151.852 132.075 151.889 132.257 151.962C132.442 152.036 132.603 152.163 132.741 152.344C132.806 152.255 132.879 152.179 132.961 152.116C133.043 152.053 133.128 152.002 133.218 151.962C133.31 151.923 133.405 151.896 133.503 151.88C133.6 151.862 133.696 151.852 133.791 151.852C134.009 151.852 134.213 151.894 134.402 151.978C134.595 152.062 134.761 152.177 134.902 152.324C135.046 152.468 135.158 152.639 135.24 152.835C135.322 153.032 135.363 153.241 135.363 153.464V156.136Z" fill="#252E51"/>
<path d="M140.119 156.136H139.865L139.458 155.559C139.358 155.65 139.251 155.737 139.139 155.818C139.028 155.897 138.912 155.966 138.789 156.026C138.666 156.084 138.539 156.13 138.408 156.164C138.28 156.198 138.149 156.215 138.016 156.215C137.726 156.215 137.454 156.165 137.197 156.066C136.943 155.966 136.721 155.822 136.528 155.633C136.339 155.442 136.189 155.209 136.078 154.934C135.968 154.659 135.913 154.346 135.913 153.994C135.913 153.667 135.968 153.367 136.078 153.094C136.189 152.819 136.339 152.583 136.528 152.387C136.721 152.19 136.943 152.038 137.197 151.931C137.454 151.821 137.726 151.766 138.016 151.766C138.149 151.766 138.281 151.783 138.412 151.817C138.543 151.851 138.67 151.898 138.793 151.959C138.916 152.019 139.032 152.09 139.143 152.171C139.255 152.252 139.36 152.34 139.458 152.434L139.865 151.935H140.119V156.136ZM139.062 153.994C139.062 153.848 139.034 153.706 138.977 153.57C138.923 153.431 138.849 153.309 138.754 153.204C138.659 153.097 138.548 153.012 138.42 152.949C138.294 152.883 138.16 152.851 138.016 152.851C137.873 152.851 137.737 152.876 137.609 152.925C137.483 152.975 137.373 153.049 137.278 153.146C137.186 153.242 137.113 153.363 137.059 153.507C137.005 153.649 136.978 153.811 136.978 153.994C136.978 154.178 137.005 154.342 137.059 154.486C137.113 154.627 137.186 154.746 137.278 154.843C137.373 154.94 137.483 155.014 137.609 155.063C137.737 155.113 137.873 155.138 138.016 155.138C138.16 155.138 138.294 155.107 138.42 155.044C138.548 154.978 138.659 154.893 138.754 154.788C138.849 154.681 138.923 154.559 138.977 154.423C139.034 154.284 139.062 154.141 139.062 153.994Z" fill="#252E51"/>
<path d="M144.713 156.136H143.429L142.61 154.847L141.784 156.136H140.5L142.003 153.979L140.5 151.904H141.784L142.61 153.11L143.429 151.904H144.713L143.206 153.979L144.713 156.136Z" fill="#252E51"/>
<path d="M94.7128 46.4106V46.4204L71.9961 46.5132V89.7667C71.9967 92.6945 73.1301 95.5086 75.1589 97.6197L82.139 104.894C83.1405 105.933 84.3412 106.761 85.6694 107.326C86.9976 107.891 88.4261 108.183 89.8697 108.185H94.9066V108.179H99.7466C101.19 108.177 102.618 107.885 103.946 107.319C105.274 106.753 106.474 105.926 107.475 104.886L114.454 97.6145C116.483 95.5016 117.617 92.6866 117.619 89.7575V46.5106L94.7128 46.4106ZM97.2598 146.6C97.0406 145.606 97.1842 144.566 97.6646 143.669L100.469 137.994L94.7658 128.022V127.783L94.7006 127.903L94.6302 127.783V128.022L88.9327 137.994L91.7723 143.819C92.7348 145.454 92.3473 145.922 92.1893 146.73L88.9174 163.511L94.6302 168.685L100.592 163.511L97.2598 146.6Z" fill="#FCD4B5"/>
<path d="M79.8053 110.528C78.6002 109.128 78.0414 108.762 77.2074 110.431L72.8496 117.486L86.3002 140.217C87.2341 141.793 87.9723 141.703 88.8053 140.126L94.7424 127.783L79.8053 110.528Z" fill="#13D2D6"/>
<path d="M109.596 110.528C110.804 109.128 111.362 108.762 112.196 110.431L116.554 117.486L103.1 140.217C102.172 141.793 101.434 141.703 100.593 140.126L94.6553 127.783L109.596 110.528Z" fill="#13D2D6"/>
<path d="M134.296 78.5602C134.296 78.8408 134.241 79.1186 134.133 79.3779C134.026 79.6371 133.869 79.8727 133.67 80.0711C133.472 80.2695 133.236 80.4269 132.977 80.5343C132.718 80.6416 132.44 80.6969 132.16 80.6968H129.464V66.4607H132.16C132.44 66.4606 132.718 66.5158 132.977 66.6231C133.236 66.7304 133.472 66.8877 133.67 67.086C133.868 67.2843 134.026 67.5198 134.133 67.7789C134.24 68.038 134.296 68.3158 134.296 68.5962L134.296 78.5602Z" fill="#CCCCCC"/>
<path d="M120.765 84.6446C120.765 84.7647 120.788 84.8837 120.834 84.9947C120.881 85.1057 120.948 85.2065 121.033 85.2914C121.118 85.3764 121.219 85.4437 121.33 85.4896C121.441 85.5355 121.56 85.5591 121.68 85.5591H130.077C130.197 85.559 130.316 85.5353 130.426 85.4893C130.537 85.4434 130.638 85.376 130.723 85.2911C130.808 85.2061 130.875 85.1053 130.921 84.9944C130.967 84.8835 130.99 84.7646 130.99 84.6446V62.5131C130.99 62.3929 130.967 62.274 130.921 62.1629C130.875 62.0519 130.808 61.9509 130.723 61.8659C130.638 61.7809 130.538 61.7134 130.427 61.6673C130.316 61.6212 130.197 61.5975 130.077 61.5974H121.68C121.56 61.5974 121.441 61.621 121.33 61.667C121.219 61.713 121.118 61.7805 121.033 61.8655C120.948 61.9506 120.88 62.0515 120.834 62.1626C120.788 62.2737 120.765 62.3928 120.765 62.5131V84.6446Z" fill="url(#paint1_linear_1_490)"/>
<path d="M117.712 82.1761C117.713 82.5805 117.874 82.9682 118.16 83.254C118.446 83.5398 118.834 83.7003 119.239 83.7003C119.643 83.7003 120.031 83.5398 120.317 83.254C120.603 82.9682 120.764 82.5805 120.765 82.1761V64.983C120.765 64.7824 120.726 64.5837 120.649 64.3983C120.573 64.2129 120.46 64.0443 120.319 63.9024C120.177 63.7604 120.008 63.6478 119.823 63.571C119.638 63.4941 119.439 63.4546 119.239 63.4546C119.038 63.4546 118.839 63.4941 118.654 63.571C118.469 63.6478 118.3 63.7604 118.159 63.9024C118.017 64.0443 117.904 64.2129 117.828 64.3983C117.751 64.5837 117.712 64.7824 117.712 64.983V82.1761ZM55.3574 78.56C55.358 79.1271 55.5837 79.6708 55.9851 80.0715C56.3864 80.4721 56.9305 80.697 57.4976 80.6966H60.1903V66.4605H57.4976C56.9306 66.46 56.3867 66.6847 55.9854 67.0852C55.5841 67.4857 55.3582 68.0291 55.3574 68.596V78.56Z" fill="#CCCCCC"/>
<path d="M68.8895 84.6446C68.8896 84.7648 68.8659 84.8838 68.8199 84.9948C68.7739 85.1058 68.7064 85.2067 68.6214 85.2916C68.5363 85.3766 68.4354 85.4439 68.3243 85.4898C68.2132 85.5357 68.0942 85.5592 67.974 85.5591H59.5786C59.4586 85.559 59.3397 85.5353 59.2288 85.4893C59.118 85.4434 59.0172 85.376 58.9324 85.2911C58.8475 85.2061 58.7803 85.1053 58.7344 84.9944C58.6885 84.8835 58.665 84.7646 58.665 84.6446V62.5131C58.6648 62.3929 58.6883 62.274 58.7341 62.1629C58.78 62.0519 58.8472 61.9509 58.932 61.8659C59.0169 61.7809 59.1177 61.7134 59.2286 61.6673C59.3395 61.6212 59.4585 61.5975 59.5786 61.5974H67.974C68.0943 61.5973 68.2134 61.6209 68.3245 61.6668C68.4357 61.7128 68.5367 61.7803 68.6217 61.8653C68.7068 61.9504 68.7742 62.0514 68.8201 62.1625C68.8661 62.2737 68.8897 62.3928 68.8895 62.5131V84.6446Z" fill="url(#paint2_linear_1_490)"/>
<path d="M71.9424 82.1761C71.9419 82.5806 71.7808 82.9683 71.4946 83.2541C71.2084 83.5399 70.8205 83.7004 70.416 83.7004C70.0116 83.7004 69.6236 83.5399 69.3375 83.2541C69.0513 82.9683 68.8902 82.5806 68.8896 82.1761V64.9831C68.8894 64.7824 68.9287 64.5837 69.0052 64.3983C69.0818 64.2129 69.1942 64.0444 69.336 63.9024C69.4777 63.7604 69.6461 63.6478 69.8314 63.571C70.0168 63.4941 70.2154 63.4546 70.416 63.4546C70.6167 63.4546 70.8153 63.4941 71.0006 63.571C71.186 63.6478 71.3543 63.7604 71.4961 63.9024C71.6378 64.0444 71.7502 64.2129 71.8268 64.3983C71.9034 64.5837 71.9427 64.7824 71.9424 64.9831V82.1761Z" fill="#CCCCCC"/>
<path d="M64.8159 66.3796H61.9355V43.0456C61.9414 37.4659 64.1605 32.1165 68.1058 28.171C72.0511 24.2255 77.4005 22.0062 82.9801 22H106.113C111.692 22.0063 117.042 24.2256 120.987 28.1711C124.933 32.1165 127.152 37.4659 127.158 43.0456V66.1885H124.277V43.0456C124.271 38.2298 122.356 33.6129 118.951 30.2076C115.545 26.8023 110.929 24.8868 106.113 24.8813H82.9801C78.1643 24.8867 73.5473 26.8021 70.142 30.2074C66.7367 33.6127 64.8212 38.2297 64.8159 43.0456V66.3796Z" fill="url(#paint3_linear_1_490)"/>
<path d="M71.9784 72.8463V57.7582C71.9101 52.5262 75.5337 47.2507 81.2924 47.1645H92.3593C95.2916 48.2392 92.399 54.7203 95.314 53.6039L112.753 47.0065C115.883 46.3346 117.679 49.0488 117.679 51.5748V72.6622C117.679 73.5365 121.057 71.2047 122.227 66.2321L124.324 36.6147C124.401 32.5981 123.233 28.6384 117.621 28.6384L104.962 28.6455H87.7975C73.6618 28.3988 63.0192 35.2893 65.3928 50.4762L68.0968 67.3103C68.5893 71.2047 71.9784 73.6207 71.9784 72.8463ZM116.639 95.1506H99.2048V92.8442H116.639C118.625 92.8421 120.53 92.0522 121.935 90.6476C123.339 89.2431 124.13 87.3387 124.132 85.3522H126.437C126.434 87.9499 125.401 90.4404 123.564 92.2773C121.727 94.1142 119.237 95.1475 116.639 95.1506Z" fill="#252E51"/>
<path d="M102.23 93.7819C102.23 94.1888 102.15 94.5918 101.994 94.9677C101.839 95.3437 101.611 95.6852 101.323 95.973C101.035 96.2607 100.693 96.4889 100.317 96.6445C99.9415 96.8001 99.5386 96.8801 99.1317 96.88H94.5209C93.6993 96.88 92.9113 96.5536 92.3303 95.9726C91.7493 95.3916 91.4229 94.6036 91.4229 93.7819C91.4229 92.9603 91.7493 92.1722 92.3303 91.5912C92.9113 91.0102 93.6993 90.6838 94.5209 90.6838H99.1317C99.5386 90.6837 99.9415 90.7637 100.317 90.9194C100.693 91.075 101.035 91.3032 101.323 91.5909C101.611 91.8786 101.839 92.2202 101.994 92.5961C102.15 92.9721 102.23 93.375 102.23 93.7819Z" fill="url(#paint4_linear_1_490)"/>
<path d="M89 139.5L94.5 127.5L100 139L97.5 145.5L101.5 164L95 172L88.5 164L92 145.5L89 139.5Z" fill="#FFD66B"/>
</g>
<defs>
<linearGradient id="paint0_linear_1_490" x1="58" y1="110" x2="130.973" y2="108.787" gradientUnits="userSpaceOnUse">
<stop stop-color="#2F69FF"/>
<stop offset="1" stop-color="#367CFF"/>
</linearGradient>
<linearGradient id="paint1_linear_1_490" x1="120.765" y1="61.5974" x2="130.716" y2="61.5249" gradientUnits="userSpaceOnUse">
<stop stop-color="#2F69FF"/>
<stop offset="1" stop-color="#367CFF"/>
</linearGradient>
<linearGradient id="paint2_linear_1_490" x1="58.665" y1="61.5974" x2="68.6155" y2="61.5249" gradientUnits="userSpaceOnUse">
<stop stop-color="#2F69FF"/>
<stop offset="1" stop-color="#367CFF"/>
</linearGradient>
<linearGradient id="paint3_linear_1_490" x1="61.9355" y1="22" x2="125.373" y2="20.4085" gradientUnits="userSpaceOnUse">
<stop stop-color="#2F69FF"/>
<stop offset="1" stop-color="#367CFF"/>
</linearGradient>
<linearGradient id="paint4_linear_1_490" x1="91.4229" y1="90.6838" x2="101.932" y2="90.3709" gradientUnits="userSpaceOnUse">
<stop stop-color="#2F69FF"/>
<stop offset="1" stop-color="#367CFF"/>
</linearGradient>
</defs>
</svg>
