<svg width="20" height="20" viewBox="0 0 20 20" fill="none" xmlns="http://www.w3.org/2000/svg">
<path d="M10 0C4.47717 0 0 4.47717 0 10C0 15.5228 4.47717 20 10 20C15.5202 19.9937 19.9937 15.5202 20 10C20 4.47717 15.5228 0 10 0ZM6.66162 1.64691C5.6134 2.7984 4.81042 4.49036 4.37213 6.5H1.70612C2.63928 4.29138 4.43176 2.53906 6.66162 1.64691ZM1 10C1 9.13153 1.1297 8.29456 1.35925 7.5H4.18927C4.07001 8.29803 4 9.13196 4 10C4 10.868 4.07001 11.702 4.18927 12.5H1.35925C1.1297 11.7054 1 10.8685 1 10ZM1.70612 13.5H4.37213C4.81042 15.5096 5.6134 17.2016 6.66162 18.3531C4.43176 17.4609 2.63928 15.7086 1.70612 13.5ZM9.5 18.9544C7.64899 18.622 6.09161 16.4655 5.39355 13.5H9.5V18.9544ZM9.5 12.5H5.20032C5.07233 11.7052 5 10.8681 5 10C5 9.1319 5.07233 8.2948 5.20032 7.5H9.5V12.5ZM9.5 6.5H5.39355C6.09161 3.53448 7.64899 1.37799 9.5 1.04559V6.5ZM18.2906 6.5H15.6279C15.1902 4.49353 14.3893 2.80341 13.3434 1.65204C15.5685 2.54572 17.3572 4.29547 18.2906 6.5ZM10.5 1.04559C12.351 1.37799 13.9084 3.53448 14.6064 6.5H10.5V1.04559ZM10.5 7.5H14.7997C14.9277 8.2948 15 9.1319 15 10C15 10.8681 14.9277 11.7052 14.7997 12.5H10.5V7.5ZM10.5 18.9544V13.5H14.6064C13.9084 16.4655 12.351 18.622 10.5 18.9544ZM13.3384 18.3531C14.3866 17.2016 15.1896 15.5096 15.6279 13.5H18.2939C17.3607 15.7086 15.5682 17.4609 13.3384 18.3531ZM15.8107 12.5C15.93 11.702 16 10.868 16 10C16 9.13196 15.93 8.29803 15.8107 7.5H18.6382C18.8685 8.29449 18.999 9.13147 19 10C19 10.8685 18.8703 11.7054 18.6407 12.5H15.8107Z" fill="white"/>
</svg>
