<svg width="250" height="250" viewBox="0 0 250 250" fill="none" xmlns="http://www.w3.org/2000/svg">
<circle cx="123" cy="124" r="64" fill="#EEF6FF"/>
<rect opacity="0.1" x="3" y="152" width="53.7931" height="53.7931" rx="26.8966" fill="#605BFF"/>
<path fill-rule="evenodd" clip-rule="evenodd" d="M23.0095 167.175H20.9707V168.981H18V182.903H42V168.981H38.9705V167.175H36.9316V168.981H30.99V167.175H28.9512V168.981H23.0095V167.175ZM30.99 184.825H28.9512V188.903H27.03L26.1562 190.825H33.9038L33.03 188.903H30.99V184.825Z" fill="#605BFF"/>
<rect opacity="0.1" x="96" y="193" width="53.7931" height="53.7931" rx="26.8966" fill="#3A974C"/>
<g clip-path="url(#clip0_112_523)">
<path d="M131.5 214.75V224.75C131.5 226.774 129.093 228.5 126.421 228.5L128.881 230.442C129.113 230.626 128.983 231 128.688 231H116.812C116.516 231 116.387 230.625 116.619 230.442L119.079 228.5C116.415 228.5 114 226.779 114 224.75V214.75C114 212.679 116.5 211 119 211H126.5C129.039 211 131.5 212.679 131.5 214.75ZM121.812 220.062V215.688C121.812 215.17 121.393 214.75 120.875 214.75H116.812C116.295 214.75 115.875 215.17 115.875 215.688V220.062C115.875 220.58 116.295 221 116.812 221H120.875C121.393 221 121.812 220.58 121.812 220.062ZM129.625 220.062V215.688C129.625 215.17 129.205 214.75 128.688 214.75H124.625C124.107 214.75 123.688 215.17 123.688 215.688V220.062C123.688 220.58 124.107 221 124.625 221H128.688C129.205 221 129.625 220.58 129.625 220.062ZM127.75 222.25C126.714 222.25 125.875 223.089 125.875 224.125C125.875 225.161 126.714 226 127.75 226C128.786 226 129.625 225.161 129.625 224.125C129.625 223.089 128.786 222.25 127.75 222.25ZM117.75 222.25C116.714 222.25 115.875 223.089 115.875 224.125C115.875 225.161 116.714 226 117.75 226C118.786 226 119.625 225.161 119.625 224.125C119.625 223.089 118.786 222.25 117.75 222.25Z" fill="#3A974C"/>
</g>
<rect opacity="0.1" x="193" y="152" width="53.7931" height="53.7931" rx="26.8966" fill="#F29339"/>
<path d="M228 174H212C210.895 174 210 174.895 210 176V187C210 188.105 210.895 189 212 189H228C229.105 189 230 188.105 230 187V176C230 174.895 229.105 174 228 174Z" stroke="#F29339" stroke-width="2" stroke-linecap="round" stroke-linejoin="round"/>
<path d="M225 169L220 174L215 169" stroke="#F29339" stroke-width="2" stroke-linecap="round" stroke-linejoin="round"/>
<path d="M219.144 179.1V180.458H217.989V184H216.589V180.458H215.434V179.1H219.144Z" fill="#F29339"/>
<path d="M221.507 184L219.946 179.1H221.486L222.291 182.215L223.096 179.1H224.636L223.075 184H221.507Z" fill="#F29339"/>
<rect opacity="0.2" x="193" y="60" width="53.665" height="53.665" rx="26.8325" fill="#FFD66B"/>
<g clip-path="url(#clip1_112_523)">
<path d="M209.47 90.4263L216.861 77.7737C217.8 78.3264 222.533 80.9462 223.298 81.4445L215.907 94.0978C215.099 95.1656 208.446 92.0467 209.47 90.4256V90.4263Z" fill="#FBBC04"/>
<path d="M230.702 90.426L223.312 77.7742C222.279 76.0547 220.053 75.4299 218.226 76.4454C216.398 77.461 215.841 79.6486 216.875 81.4449L224.265 94.0983C225.298 95.817 227.524 96.4418 229.351 95.4263C231.099 94.4106 231.736 92.1454 230.702 90.4275V90.426Z" fill="url(#paint0_linear_112_523)"/>
<path d="M212.667 95.9152C214.716 95.9152 216.377 94.2955 216.377 92.2975C216.377 90.2995 214.716 88.6797 212.667 88.6797C210.618 88.6797 208.957 90.2995 208.957 92.2975C208.957 94.2955 210.618 95.9152 212.667 95.9152Z" fill="#34A853"/>
</g>
<rect opacity="0.1" x="96" y="4" width="53.7931" height="53.7931" rx="26.8966" fill="#FF8F6B"/>
<g clip-path="url(#clip2_112_523)">
<path d="M134.501 25.4034C134.365 24.9187 134.1 24.4798 133.735 24.1334C133.359 23.7764 132.898 23.5211 132.397 23.3914C130.519 22.8964 122.995 22.8964 122.995 22.8964C119.858 22.8608 116.722 23.0177 113.605 23.3664C113.103 23.5057 112.643 23.7667 112.267 24.1264C111.897 24.4824 111.629 24.9214 111.489 25.4024C111.152 27.2142 110.989 29.0538 111.001 30.8964C110.989 32.7374 111.152 34.5764 111.489 36.3904C111.626 36.8694 111.893 37.3064 112.264 37.6594C112.635 38.0124 113.097 38.2674 113.605 38.4024C115.508 38.8964 122.995 38.8964 122.995 38.8964C126.135 38.9322 129.275 38.7752 132.397 38.4264C132.898 38.2968 133.359 38.0414 133.735 37.6844C134.105 37.3314 134.368 36.8924 134.5 36.4144C134.845 34.6034 135.012 32.763 135.001 30.9194C135.027 29.068 134.859 27.219 134.501 25.4024V25.4034ZM120.603 34.3204V27.4734L126.863 30.8974L120.603 34.3204Z" fill="#E71D36"/>
</g>
<rect opacity="0.1" x="3" y="60" width="53.665" height="53.665" rx="26.8325" fill="url(#paint1_linear_112_523)"/>
<path d="M30 82C29.1144 81.9987 28.2569 82.3108 27.5794 82.8811C26.9019 83.4515 26.4481 84.2432 26.2984 85.116C26.1487 85.9889 26.3127 86.8865 26.7614 87.65C27.2101 88.4135 27.9146 88.9936 28.75 89.2875C28.744 89.3582 28.744 89.4293 28.75 89.5V97C28.75 97.3315 28.8817 97.6494 29.1161 97.8839C29.3505 98.1183 29.6685 98.25 30 98.25C30.3315 98.25 30.6495 98.1183 30.8839 97.8839C31.1183 97.6494 31.25 97.3315 31.25 97V89.5C31.256 89.4293 31.256 89.3582 31.25 89.2875C32.0854 88.9936 32.7899 88.4135 33.2386 87.65C33.6873 86.8865 33.8513 85.9889 33.7016 85.116C33.5519 84.2432 33.0981 83.4515 32.4206 82.8811C31.7431 82.3108 30.8856 81.9987 30 82ZM19.375 85.75C19.4091 84.4844 19.7227 83.242 20.2932 82.1118C20.8637 80.9816 21.677 79.9915 22.675 79.2125C22.9303 79.0003 23.0908 78.6954 23.1213 78.3649C23.1518 78.0344 23.0497 77.7052 22.8375 77.45C22.7324 77.3236 22.6035 77.2191 22.4581 77.1425C22.3127 77.066 22.1536 77.0188 21.9899 77.0037C21.6594 76.9732 21.3303 77.0753 21.075 77.2875C19.7929 78.2999 18.7513 79.5839 18.025 81.0472C17.2988 82.5105 16.906 84.1167 16.875 85.75C16.906 87.3833 17.2988 88.9894 18.025 90.4527C18.7513 91.916 19.7929 93.2001 21.075 94.2125C21.2014 94.3175 21.3472 94.3967 21.5042 94.4454C21.6612 94.494 21.8262 94.5113 21.9899 94.4963C22.1536 94.4812 22.3127 94.434 22.4581 94.3574C22.6035 94.2808 22.7324 94.1764 22.8375 94.05C22.9426 93.9236 23.0217 93.7777 23.0704 93.6208C23.1191 93.4638 23.1364 93.2987 23.1213 93.1351C23.1062 92.9714 23.059 92.8123 22.9824 92.6669C22.9059 92.5215 22.8014 92.3925 22.675 92.2875C21.677 91.5084 20.8637 90.5183 20.2932 89.3881C19.7227 88.2579 19.4091 87.0156 19.375 85.75Z" fill="url(#paint2_linear_112_523)"/>
<path d="M35.8 79.8C35.5443 79.63 35.235 79.5602 34.931 79.6037C34.6271 79.6472 34.3498 79.801 34.152 80.0359C33.9543 80.2707 33.8498 80.5702 33.8587 80.8771C33.8675 81.184 33.989 81.4769 34.2 81.7C34.8177 82.1835 35.3216 82.7969 35.6758 83.4968C36.0301 84.1967 36.2261 84.9659 36.25 85.75C36.2261 86.534 36.0301 87.3033 35.6758 88.0032C35.3216 88.703 34.8177 89.3165 34.2 89.8C34.0066 89.9653 33.8682 90.1858 33.8035 90.4319C33.7387 90.678 33.7506 90.938 33.8376 91.1772C33.9246 91.4164 34.0825 91.6233 34.2902 91.7703C34.4979 91.9173 34.7455 91.9974 35 92C35.2936 91.997 35.5768 91.8908 35.8 91.7C36.7019 90.9888 37.4344 90.086 37.9446 89.057C38.4548 88.0279 38.7299 86.8984 38.75 85.75C38.7299 84.6016 38.4548 83.472 37.9446 82.443C37.4344 81.4139 36.7019 80.5112 35.8 79.8ZM25.95 79.95C25.7366 79.6999 25.4333 79.5439 25.1058 79.5158C24.7782 79.4877 24.4528 79.5898 24.2 79.8C23.2981 80.5112 22.5656 81.4139 22.0554 82.443C21.5452 83.472 21.2701 84.6016 21.25 85.75C21.2701 86.8984 21.5452 88.0279 22.0554 89.057C22.5656 90.086 23.2981 90.9888 24.2 91.7C24.4528 91.9101 24.7782 92.0122 25.1058 91.9841C25.4333 91.956 25.7366 91.8001 25.95 91.55C26.1601 91.2971 26.2622 90.9717 26.2342 90.6442C26.2061 90.3166 26.0501 90.0133 25.8 89.8C25.1823 89.3165 24.6784 88.703 24.3242 88.0032C23.9699 87.3033 23.7739 86.534 23.75 85.75C23.7739 84.9659 23.9699 84.1967 24.3242 83.4968C24.6784 82.7969 25.1823 82.1835 25.8 81.7C26.0501 81.4866 26.2061 81.1833 26.2342 80.8557C26.2622 80.5282 26.1601 80.2028 25.95 79.95Z" fill="url(#paint3_linear_112_523)"/>
<path d="M38.9246 77.2875C38.7982 77.1824 38.6524 77.1033 38.4954 77.0546C38.3384 77.0059 38.1734 76.9886 38.0097 77.0037C37.846 77.0188 37.687 77.066 37.5415 77.1425C37.3961 77.2191 37.2672 77.3236 37.1621 77.45C37.0571 77.5764 36.9779 77.7222 36.9292 77.8792C36.8805 78.0362 36.8632 78.2012 36.8783 78.3649C36.8934 78.5285 36.9406 78.6876 37.0172 78.8331C37.0937 78.9785 37.1982 79.1074 37.3246 79.2125C38.3226 79.9915 39.1359 80.9816 39.7064 82.1118C40.2769 83.242 40.5905 84.4844 40.6246 85.75C40.5905 87.0155 40.2769 88.2579 39.7064 89.3881C39.1359 90.5183 38.3226 91.5084 37.3246 92.2875C37.0693 92.4996 36.9088 92.8045 36.8783 93.1351C36.8479 93.4656 36.9499 93.7947 37.1621 94.05C37.3743 94.3052 37.6792 94.4658 38.0097 94.4963C38.3402 94.5267 38.6693 94.4246 38.9246 94.2125C40.2067 93.2001 41.2484 91.916 41.9746 90.4527C42.7008 88.9894 43.0936 87.3833 43.1246 85.75C43.0936 84.1167 42.7008 82.5105 41.9746 81.0472C41.2484 79.5839 40.2067 78.2999 38.9246 77.2875Z" fill="url(#paint4_linear_112_523)"/>
<line x1="124" y1="152" x2="124" y2="193" stroke="#E7F0EA" stroke-width="2" stroke-dasharray="10 10"/>
<line x1="124" y1="58" x2="124" y2="99" stroke="#FBEFED" stroke-width="2" stroke-dasharray="10 10"/>
<line x1="50.4997" y1="98.1338" x2="76.4997" y2="113.134" stroke="#EAF0FB" stroke-width="2" stroke-dasharray="10 10"/>
<line x1="170.5" y1="144.134" x2="196.5" y2="159.134" stroke="#F9F0E8" stroke-width="2" stroke-dasharray="10 10"/>
<line x1="52.4204" y1="161.918" x2="83.4086" y2="139.194" stroke="#EBEAFB" stroke-width="2" stroke-dasharray="10 10"/>
<line x1="169.56" y1="113.102" x2="196.064" y2="100.102" stroke="#FBF3DE" stroke-width="2" stroke-dasharray="10 10"/>
<g filter="url(#filter0_d_112_523)">
<circle cx="122.5" cy="124.5" r="50.5" fill="white"/>
<circle cx="122.5" cy="124.5" r="49.5" stroke="#EEF6FF" stroke-width="2"/>
</g>
<g clip-path="url(#clip3_112_523)">
<path d="M92.4527 118.805V124.682H95.4953C95.9123 124.682 96.3046 124.607 96.6721 124.457C97.0397 124.3 97.3612 124.088 97.6369 123.822C97.9125 123.556 98.1281 123.245 98.2836 122.89C98.4461 122.528 98.5274 122.146 98.5274 121.744C98.5274 121.341 98.4461 120.962 98.2836 120.607C98.1281 120.245 97.9125 119.931 97.6369 119.665C97.3612 119.399 97.0397 119.191 96.6721 119.041C96.3046 118.884 95.9123 118.805 95.4953 118.805H92.4527ZM92.4527 130.548H89.41V115.867H95.4953C96.0537 115.867 96.5908 115.939 97.1068 116.082C97.6227 116.218 98.1033 116.416 98.5486 116.676C99.001 116.928 99.4109 117.235 99.7784 117.597C100.153 117.952 100.471 118.348 100.733 118.785C101.001 119.222 101.206 119.689 101.347 120.187C101.496 120.686 101.57 121.204 101.57 121.744C101.57 122.549 101.411 123.31 101.093 124.027C100.775 124.737 100.34 125.358 99.789 125.89C99.2377 126.422 98.591 126.842 97.8489 127.149C97.1139 127.456 96.3293 127.61 95.4953 127.61H92.4527V130.548Z" fill="black"/>
<path d="M105.949 130.548H103.054V119.583H103.754L104.708 120.884C105.175 120.474 105.705 120.16 106.298 119.942C106.892 119.716 107.507 119.604 108.143 119.604H110.698V122.389H108.143C107.839 122.389 107.553 122.443 107.284 122.552C107.016 122.662 106.783 122.812 106.585 123.003C106.387 123.194 106.231 123.419 106.118 123.679C106.005 123.938 105.949 124.214 105.949 124.508V130.548Z" fill="black"/>
<path d="M115.458 116.604C115.458 116.863 115.405 117.106 115.299 117.331C115.2 117.556 115.062 117.754 114.886 117.925C114.709 118.089 114.501 118.222 114.26 118.324C114.027 118.42 113.776 118.467 113.508 118.467C113.239 118.467 112.985 118.42 112.744 118.324C112.511 118.222 112.306 118.089 112.129 117.925C111.96 117.754 111.822 117.556 111.716 117.331C111.617 117.106 111.567 116.863 111.567 116.604C111.567 116.351 111.617 116.113 111.716 115.887C111.822 115.655 111.96 115.457 112.129 115.294C112.306 115.123 112.511 114.99 112.744 114.894C112.985 114.792 113.239 114.741 113.508 114.741C113.776 114.741 114.027 114.792 114.26 114.894C114.501 114.99 114.709 115.123 114.886 115.294C115.062 115.457 115.2 115.655 115.299 115.887C115.405 116.113 115.458 116.351 115.458 116.604ZM114.96 130.548H112.045V119.583H114.96V130.548Z" fill="black"/>
<path d="M131.615 130.548H128.731V123.586C128.731 123.395 128.693 123.214 128.615 123.044C128.544 122.873 128.442 122.723 128.307 122.593C128.173 122.464 128.018 122.365 127.841 122.296C127.664 122.221 127.477 122.184 127.279 122.184C127.081 122.184 126.894 122.221 126.717 122.296C126.548 122.365 126.396 122.464 126.261 122.593C126.134 122.723 126.032 122.873 125.954 123.044C125.883 123.214 125.848 123.395 125.848 123.586V130.548H122.954V123.586C122.954 123.395 122.915 123.214 122.837 123.044C122.766 122.873 122.664 122.723 122.53 122.593C122.395 122.464 122.24 122.365 122.063 122.296C121.886 122.221 121.699 122.184 121.501 122.184C121.303 122.184 121.116 122.221 120.939 122.296C120.77 122.365 120.618 122.464 120.483 122.593C120.356 122.723 120.254 122.873 120.176 123.044C120.105 123.214 120.07 123.395 120.07 123.586V130.548H117.176V119.583H117.875L118.66 120.423C119.063 120.095 119.505 119.843 119.985 119.665C120.473 119.481 120.978 119.389 121.501 119.389C122.031 119.389 122.547 119.484 123.049 119.675C123.558 119.867 124.003 120.198 124.385 120.669C124.562 120.436 124.763 120.239 124.989 120.075C125.215 119.911 125.452 119.778 125.699 119.675C125.954 119.573 126.215 119.501 126.484 119.46C126.753 119.413 127.018 119.389 127.279 119.389C127.88 119.389 128.442 119.498 128.965 119.716C129.495 119.935 129.954 120.235 130.343 120.617C130.739 120.993 131.05 121.436 131.276 121.948C131.502 122.46 131.615 123.006 131.615 123.586V130.548Z" fill="black"/>
<path d="M144.729 130.548H144.03L142.906 129.043C142.63 129.282 142.337 129.507 142.026 129.719C141.722 129.924 141.4 130.105 141.061 130.262C140.722 130.412 140.372 130.531 140.012 130.62C139.658 130.709 139.298 130.753 138.93 130.753C138.132 130.753 137.379 130.623 136.672 130.364C135.972 130.105 135.358 129.729 134.827 129.238C134.304 128.74 133.891 128.132 133.587 127.415C133.283 126.699 133.131 125.883 133.131 124.969C133.131 124.115 133.283 123.334 133.587 122.624C133.891 121.907 134.304 121.293 134.827 120.781C135.358 120.269 135.972 119.873 136.672 119.594C137.379 119.307 138.132 119.164 138.93 119.164C139.298 119.164 139.662 119.208 140.022 119.297C140.383 119.385 140.733 119.508 141.072 119.665C141.411 119.822 141.733 120.006 142.037 120.218C142.348 120.43 142.637 120.658 142.906 120.904L144.03 119.604H144.729V130.548ZM141.814 124.969C141.814 124.586 141.736 124.218 141.581 123.863C141.432 123.501 141.227 123.184 140.966 122.911C140.704 122.631 140.397 122.409 140.043 122.245C139.697 122.075 139.326 121.989 138.93 121.989C138.534 121.989 138.16 122.054 137.806 122.184C137.46 122.313 137.156 122.505 136.895 122.757C136.64 123.01 136.439 123.324 136.29 123.699C136.142 124.068 136.068 124.491 136.068 124.969C136.068 125.446 136.142 125.873 136.29 126.248C136.439 126.617 136.64 126.927 136.895 127.18C137.156 127.433 137.46 127.624 137.806 127.753C138.16 127.883 138.534 127.948 138.93 127.948C139.326 127.948 139.697 127.866 140.043 127.702C140.397 127.532 140.704 127.31 140.966 127.037C141.227 126.757 141.432 126.439 141.581 126.085C141.736 125.723 141.814 125.351 141.814 124.969Z" fill="black"/>
<path d="M157.398 130.548H153.857L151.599 127.19L149.32 130.548H145.779L149.924 124.928L145.779 119.522H149.32L151.599 122.665L153.857 119.522H157.398L153.242 124.928L157.398 130.548Z" fill="black"/>
<path d="M166.381 128.787C166.381 129.03 166.333 129.258 166.237 129.471C166.141 129.684 166.009 129.871 165.842 130.032C165.678 130.191 165.486 130.316 165.266 130.409C165.045 130.502 164.809 130.548 164.557 130.548H161.517V124.676H164.557C164.809 124.676 165.045 124.722 165.266 124.815C165.486 124.908 165.678 125.035 165.842 125.196C166.009 125.354 166.141 125.54 166.237 125.753C166.333 125.966 166.381 126.194 166.381 126.437C166.381 126.546 166.365 126.658 166.334 126.773C166.303 126.887 166.259 126.998 166.203 127.104C166.146 127.211 166.078 127.308 165.999 127.395C165.92 127.482 165.832 127.555 165.736 127.612C165.835 127.664 165.924 127.735 166.003 127.825C166.083 127.912 166.15 128.009 166.207 128.116C166.264 128.222 166.306 128.334 166.334 128.452C166.365 128.566 166.381 128.678 166.381 128.787ZM162.734 129.373H164.557C164.642 129.373 164.721 129.358 164.795 129.328C164.868 129.298 164.932 129.257 164.986 129.205C165.042 129.151 165.086 129.088 165.117 129.017C165.148 128.946 165.164 128.869 165.164 128.787C165.164 128.706 165.148 128.629 165.117 128.558C165.086 128.487 165.042 128.426 164.986 128.374C164.932 128.319 164.868 128.277 164.795 128.247C164.721 128.217 164.642 128.202 164.557 128.202H162.734V129.373ZM162.734 127.026H164.557C164.642 127.026 164.721 127.011 164.795 126.981C164.868 126.951 164.932 126.91 164.986 126.859C165.042 126.804 165.086 126.741 165.117 126.67C165.148 126.596 165.164 126.519 165.164 126.437C165.164 126.355 165.148 126.278 165.117 126.207C165.086 126.136 165.042 126.075 164.986 126.023C164.932 125.969 164.868 125.926 164.795 125.896C164.721 125.866 164.642 125.851 164.557 125.851H162.734V127.026Z" fill="#FF0000"/>
<path d="M168.985 129.475C169.03 129.489 169.075 129.499 169.12 129.504C169.166 129.507 169.211 129.508 169.256 129.508C169.369 129.508 169.478 129.493 169.583 129.463C169.687 129.433 169.785 129.391 169.875 129.336C169.968 129.279 170.05 129.211 170.121 129.131C170.195 129.05 170.254 128.959 170.299 128.861L171.147 129.684C171.04 129.832 170.916 129.964 170.774 130.082C170.636 130.199 170.484 130.299 170.32 130.38C170.159 130.462 169.988 130.524 169.807 130.565C169.629 130.608 169.445 130.63 169.256 130.63C168.937 130.63 168.635 130.573 168.353 130.458C168.073 130.344 167.827 130.184 167.615 129.979C167.406 129.774 167.24 129.531 167.119 129.25C166.997 128.966 166.936 128.655 166.936 128.316C166.936 127.97 166.997 127.653 167.119 127.366C167.24 127.08 167.406 126.835 167.615 126.633C167.827 126.431 168.073 126.274 168.353 126.162C168.635 126.05 168.937 125.994 169.256 125.994C169.445 125.994 169.631 126.016 169.812 126.06C169.993 126.104 170.164 126.166 170.325 126.248C170.489 126.33 170.641 126.431 170.783 126.551C170.924 126.669 171.048 126.801 171.156 126.949L168.985 129.475ZM169.578 127.17C169.525 127.151 169.471 127.138 169.417 127.133C169.366 127.127 169.313 127.125 169.256 127.125C169.098 127.125 168.948 127.153 168.807 127.211C168.668 127.265 168.546 127.345 168.442 127.448C168.34 127.552 168.259 127.678 168.2 127.825C168.141 127.97 168.111 128.134 168.111 128.316C168.111 128.357 168.112 128.404 168.115 128.456C168.121 128.508 168.128 128.561 168.137 128.615C168.148 128.667 168.161 128.718 168.175 128.767C168.189 128.816 168.207 128.86 168.23 128.898L169.578 127.17Z" fill="#FF0000"/>
<path d="M174.018 130.548C173.738 130.548 173.475 130.498 173.23 130.397C172.984 130.293 172.767 130.152 172.581 129.975C172.397 129.795 172.251 129.586 172.144 129.348C172.039 129.111 171.987 128.857 171.987 128.587V127.284H171.423V126.171H171.987V124.418H173.14V126.171H174.896V127.284H173.14V128.587C173.14 128.704 173.163 128.815 173.208 128.918C173.254 129.019 173.316 129.108 173.395 129.185C173.474 129.261 173.567 129.323 173.675 129.369C173.782 129.413 173.897 129.434 174.018 129.434H174.896V130.548H174.018Z" fill="#FF0000"/>
<path d="M179.947 130.548H179.667L179.217 129.946C179.107 130.042 178.99 130.132 178.865 130.217C178.744 130.299 178.615 130.371 178.479 130.434C178.344 130.494 178.204 130.542 178.06 130.577C177.918 130.613 177.774 130.63 177.627 130.63C177.308 130.63 177.007 130.578 176.724 130.475C176.444 130.371 176.198 130.221 175.986 130.024C175.777 129.825 175.611 129.582 175.49 129.295C175.368 129.009 175.307 128.682 175.307 128.316C175.307 127.975 175.368 127.663 175.49 127.379C175.611 127.092 175.777 126.846 175.986 126.641C176.198 126.437 176.444 126.278 176.724 126.166C177.007 126.052 177.308 125.994 177.627 125.994C177.774 125.994 177.92 126.012 178.064 126.048C178.208 126.083 178.348 126.132 178.484 126.195C178.619 126.258 178.748 126.332 178.87 126.416C178.994 126.501 179.11 126.592 179.217 126.691L179.667 126.171H179.947V130.548ZM178.781 128.316C178.781 128.164 178.749 128.016 178.687 127.874C178.628 127.729 178.546 127.603 178.441 127.493C178.337 127.381 178.214 127.293 178.072 127.227C177.934 127.159 177.785 127.125 177.627 127.125C177.469 127.125 177.319 127.151 177.178 127.203C177.039 127.254 176.917 127.331 176.813 127.432C176.711 127.533 176.631 127.658 176.571 127.809C176.512 127.956 176.482 128.125 176.482 128.316C176.482 128.508 176.512 128.678 176.571 128.828C176.631 128.976 176.711 129.1 176.813 129.201C176.917 129.302 177.039 129.378 177.178 129.43C177.319 129.482 177.469 129.508 177.627 129.508C177.785 129.508 177.934 129.475 178.072 129.41C178.214 129.342 178.337 129.253 178.441 129.144C178.546 129.032 178.628 128.905 178.687 128.763C178.749 128.618 178.781 128.469 178.781 128.316Z" fill="#FF0000"/>
</g>
<defs>
<filter id="filter0_d_112_523" x="62" y="68" width="121" height="121" filterUnits="userSpaceOnUse" color-interpolation-filters="sRGB">
<feFlood flood-opacity="0" result="BackgroundImageFix"/>
<feColorMatrix in="SourceAlpha" type="matrix" values="0 0 0 0 0 0 0 0 0 0 0 0 0 0 0 0 0 0 127 0" result="hardAlpha"/>
<feOffset dy="4"/>
<feGaussianBlur stdDeviation="5"/>
<feComposite in2="hardAlpha" operator="out"/>
<feColorMatrix type="matrix" values="0 0 0 0 0 0 0 0 0 0 0 0 0 0 0 0 0 0 0.05 0"/>
<feBlend mode="normal" in2="BackgroundImageFix" result="effect1_dropShadow_112_523"/>
<feBlend mode="normal" in="SourceGraphic" in2="effect1_dropShadow_112_523" result="shape"/>
</filter>
<linearGradient id="paint0_linear_112_523" x1="216.359" y1="75.9563" x2="230.801" y2="75.773" gradientUnits="userSpaceOnUse">
<stop stop-color="#2F69FF"/>
<stop offset="1" stop-color="#367CFF"/>
</linearGradient>
<linearGradient id="paint1_linear_112_523" x1="3" y1="60" x2="55.2141" y2="59.1087" gradientUnits="userSpaceOnUse">
<stop stop-color="#2F69FF"/>
<stop offset="1" stop-color="#367CFF"/>
</linearGradient>
<linearGradient id="paint2_linear_112_523" x1="16.875" y1="76.9984" x2="33.301" y2="76.7757" gradientUnits="userSpaceOnUse">
<stop stop-color="#2F69FF"/>
<stop offset="1" stop-color="#367CFF"/>
</linearGradient>
<linearGradient id="paint3_linear_112_523" x1="21.25" y1="79.5112" x2="38.2721" y2="79.1041" gradientUnits="userSpaceOnUse">
<stop stop-color="#2F69FF"/>
<stop offset="1" stop-color="#367CFF"/>
</linearGradient>
<linearGradient id="paint4_linear_112_523" x1="36.873" y1="76.9984" x2="42.9571" y2="76.9613" gradientUnits="userSpaceOnUse">
<stop stop-color="#2F69FF"/>
<stop offset="1" stop-color="#367CFF"/>
</linearGradient>
<clipPath id="clip0_112_523">
<rect width="17.5" height="20" fill="white" transform="translate(114 211)"/>
</clipPath>
<clipPath id="clip1_112_523">
<rect width="22.2609" height="20" fill="white" transform="translate(208.957 75.9563)"/>
</clipPath>
<clipPath id="clip2_112_523">
<rect width="24" height="26" fill="white" transform="translate(111 17)"/>
</clipPath>
<clipPath id="clip3_112_523">
<rect width="70" height="26" fill="white" transform="translate(88 110)"/>
</clipPath>
</defs>
</svg>
