<svg width="250" height="250" viewBox="0 0 250 250" fill="none" xmlns="http://www.w3.org/2000/svg">
<circle cx="125" cy="125" r="114.5" fill="#EEF6FF" stroke="#EEF6FF"/>
<path d="M225.795 210.255H24.2046C16.6935 210.255 10.599 204.132 10.599 196.571V57.4291C10.599 49.8683 16.6935 43.7447 24.2046 43.7447H225.795C233.306 43.7447 239.401 49.8683 239.401 57.4291V196.571C239.401 204.132 233.306 210.255 225.795 210.255Z" fill="#A9D0FF" stroke="#EEF6FF" stroke-width="1.19792"/>
<path d="M15.39 193.999V60.0022C15.39 54.3316 19.9886 49.7343 25.6619 49.7343H223.14C228.813 49.7343 233.411 54.3312 233.411 60.0013V193.998C233.411 199.668 228.812 204.266 223.139 204.266H25.661C19.9883 204.266 15.39 199.669 15.39 193.999Z" fill="white" stroke="#EEF6FF" stroke-width="1.19792"/>
<rect opacity="0.1" x="30.6242" y="158.539" width="30.7917" height="30.7917" rx="15.3959" fill="#605BFF" stroke="#EEF6FF" stroke-width="0.521894"/>
<mask id="path-5-inside-1_112_468" fill="white">
<path fill-rule="evenodd" clip-rule="evenodd" d="M42.0111 167.112H40.8242V168.163H39.0957V176.267H53.0664V168.163H51.3021V167.112H50.1152V168.163H46.6556V167.112H45.4688V168.163H42.0111V167.112ZM46.6556 177.386H45.4688V179.76H44.3524L43.8438 180.879H48.3537L47.8451 179.76H46.6556V177.386Z"/>
</mask>
<path fill-rule="evenodd" clip-rule="evenodd" d="M42.0111 167.112H40.8242V168.163H39.0957V176.267H53.0664V168.163H51.3021V167.112H50.1152V168.163H46.6556V167.112H45.4688V168.163H42.0111V167.112ZM46.6556 177.386H45.4688V179.76H44.3524L43.8438 180.879H48.3537L47.8451 179.76H46.6556V177.386Z" fill="#605BFF"/>
<path d="M40.8242 167.112V166.53H40.2421V167.112H40.8242ZM42.0111 167.112H42.5932V166.53H42.0111V167.112ZM40.8242 168.163V168.745H41.4063V168.163H40.8242ZM39.0957 168.163V167.581H38.5136V168.163H39.0957ZM39.0957 176.267H38.5136V176.849H39.0957V176.267ZM53.0664 176.267V176.849H53.6485V176.267H53.0664ZM53.0664 168.163H53.6485V167.581H53.0664V168.163ZM51.3021 168.163H50.72V168.745H51.3021V168.163ZM51.3021 167.112H51.8842V166.53H51.3021V167.112ZM50.1152 167.112V166.53H49.5331V167.112H50.1152ZM50.1152 168.163V168.745H50.6973V168.163H50.1152ZM46.6556 168.163H46.0735V168.745H46.6556V168.163ZM46.6556 167.112H47.2377V166.53H46.6556V167.112ZM45.4688 167.112V166.53H44.8866V167.112H45.4688ZM45.4688 168.163V168.745H46.0509V168.163H45.4688ZM42.0111 168.163H41.4289V168.745H42.0111V168.163ZM45.4688 177.386V176.804H44.8866V177.386H45.4688ZM46.6556 177.386H47.2377V176.804H46.6556V177.386ZM45.4688 179.76V180.342H46.0509V179.76H45.4688ZM44.3524 179.76V179.178H43.9776L43.8225 179.519L44.3524 179.76ZM43.8438 180.879L43.3138 180.638L42.9397 181.461H43.8438V180.879ZM48.3537 180.879V181.461H49.2577L48.8836 180.638L48.3537 180.879ZM47.8451 179.76L48.375 179.519L48.2199 179.178H47.8451V179.76ZM46.6556 179.76H46.0735V180.342H46.6556V179.76ZM40.8242 167.694H42.0111V166.53H40.8242V167.694ZM41.4063 168.163V167.112H40.2421V168.163H41.4063ZM39.0957 168.745H40.8242V167.581H39.0957V168.745ZM39.6778 176.267V168.163H38.5136V176.267H39.6778ZM53.0664 175.685H39.0957V176.849H53.0664V175.685ZM52.4843 168.163V176.267H53.6485V168.163H52.4843ZM51.3021 168.745H53.0664V167.581H51.3021V168.745ZM50.72 167.112V168.163H51.8842V167.112H50.72ZM50.1152 167.694H51.3021V166.53H50.1152V167.694ZM50.6973 168.163V167.112H49.5331V168.163H50.6973ZM46.6556 168.745H50.1152V167.581H46.6556V168.745ZM46.0735 167.112V168.163H47.2377V167.112H46.0735ZM45.4688 167.694H46.6556V166.53H45.4688V167.694ZM46.0509 168.163V167.112H44.8866V168.163H46.0509ZM42.0111 168.745H45.4688V167.581H42.0111V168.745ZM41.4289 167.112V168.163H42.5932V167.112H41.4289ZM45.4688 177.968H46.6556V176.804H45.4688V177.968ZM46.0509 179.76V177.386H44.8866V179.76H46.0509ZM44.3524 180.342H45.4688V179.178H44.3524V180.342ZM44.3737 181.12L44.8823 180.001L43.8225 179.519L43.3138 180.638L44.3737 181.12ZM48.3537 180.297H43.8438V181.461H48.3537V180.297ZM47.3151 180.001L47.8238 181.12L48.8836 180.638L48.375 179.519L47.3151 180.001ZM46.6556 180.342H47.8451V179.178H46.6556V180.342ZM46.0735 177.386V179.76H47.2377V177.386H46.0735Z" fill="#EEF6FF" mask="url(#path-5-inside-1_112_468)"/>
<rect opacity="0.1" x="128.855" y="158.539" width="30.7917" height="30.7917" rx="15.3959" fill="#3A974C" stroke="#EEF6FF" stroke-width="0.521894"/>
<g clip-path="url(#clip0_112_468)">
<path d="M149.257 170.939V176.76C149.257 177.938 147.856 178.943 146.301 178.943L147.733 180.074C147.868 180.181 147.792 180.398 147.62 180.398H140.708C140.535 180.398 140.46 180.18 140.595 180.074L142.027 178.943C140.476 178.943 139.07 177.942 139.07 176.76V170.939C139.07 169.734 140.526 168.756 141.981 168.756H146.347C147.825 168.756 149.257 169.734 149.257 170.939ZM143.618 174.032V171.485C143.618 171.183 143.374 170.939 143.072 170.939H140.708C140.406 170.939 140.162 171.183 140.162 171.485V174.032C140.162 174.333 140.406 174.577 140.708 174.577H143.072C143.374 174.577 143.618 174.333 143.618 174.032ZM148.166 174.032V171.485C148.166 171.183 147.921 170.939 147.62 170.939H145.255C144.954 170.939 144.71 171.183 144.71 171.485V174.032C144.71 174.333 144.954 174.577 145.255 174.577H147.62C147.921 174.577 148.166 174.333 148.166 174.032ZM147.074 175.305C146.472 175.305 145.983 175.794 145.983 176.396C145.983 176.999 146.472 177.488 147.074 177.488C147.677 177.488 148.166 176.999 148.166 176.396C148.166 175.794 147.677 175.305 147.074 175.305ZM141.253 175.305C140.65 175.305 140.162 175.794 140.162 176.396C140.162 176.999 140.65 177.488 141.253 177.488C141.856 177.488 142.345 176.999 142.345 176.396C142.345 175.794 141.856 175.305 141.253 175.305Z" fill="#3A974C"/>
</g>
<rect x="139.361" y="169.047" width="9.60486" height="11.0601" stroke="#EEF6FF" stroke-width="0.582112"/>
<rect opacity="0.1" x="128.855" y="112.316" width="30.7917" height="30.7917" rx="15.3959" fill="#F29339" stroke="#EEF6FF" stroke-width="0.521894"/>
<g clip-path="url(#clip1_112_468)">
<path d="M148.966 124.861H139.652C139.009 124.861 138.488 125.383 138.488 126.026V132.429C138.488 133.072 139.009 133.593 139.652 133.593H148.966C149.609 133.593 150.13 133.072 150.13 132.429V126.026C150.13 125.383 149.609 124.861 148.966 124.861Z" stroke="#F29339" stroke-width="1.16422" stroke-linecap="round" stroke-linejoin="round"/>
<path d="M147.218 121.951L144.307 124.861L141.396 121.951" stroke="#F29339" stroke-width="1.16422" stroke-linecap="round" stroke-linejoin="round"/>
<path d="M143.808 127.83V128.621H143.136V130.682H142.321V128.621H141.648V127.83H143.808Z" fill="#F29339"/>
<path d="M145.184 130.682L144.275 127.83H145.172L145.64 129.643L146.109 127.83H147.006L146.097 130.682H145.184Z" fill="#F29339"/>
</g>
<rect x="137.613" y="121.078" width="13.3886" height="13.3886" stroke="#EEF6FF" stroke-width="0.582112"/>
<rect opacity="0.2" x="128.854" y="66.1665" width="30.7184" height="30.7184" rx="15.3592" fill="#FFD66B" stroke="#EEF6FF" stroke-width="0.520652"/>
<g clip-path="url(#clip2_112_468)">
<path d="M138.181 83.6178L142.484 76.2526C143.03 76.5743 145.786 78.0993 146.231 78.3894L141.929 85.755C141.458 86.3766 137.585 84.5611 138.181 83.6174V83.6178Z" fill="#FBBC04"/>
<path d="M150.539 83.6176L146.237 76.2528C145.635 75.2519 144.34 74.8881 143.276 75.4793C142.212 76.0705 141.888 77.3439 142.489 78.3896L146.791 85.7553C147.393 86.7557 148.688 87.1194 149.752 86.5283C150.77 85.9371 151.14 84.6185 150.539 83.6185V83.6176Z" fill="url(#paint0_linear_112_468)"/>
<path d="M140.042 86.8129C141.235 86.8129 142.202 85.8701 142.202 84.707C142.202 83.5439 141.235 82.6011 140.042 82.6011C138.85 82.6011 137.883 83.5439 137.883 84.707C137.883 85.8701 138.85 86.8129 140.042 86.8129Z" fill="#34A853"/>
</g>
<rect x="138.174" y="75.4856" width="12.3762" height="11.0601" stroke="#EEF6FF" stroke-width="0.582112"/>
<rect opacity="0.1" x="30.6242" y="66.1671" width="30.7917" height="30.7917" rx="15.3959" fill="#FF8F6B" stroke="#EEF6FF" stroke-width="0.521894"/>
<g clip-path="url(#clip3_112_468)">
<path d="M52.7757 78.3656C52.6966 78.0834 52.5425 77.8279 52.3298 77.6263C52.1111 77.4185 51.843 77.2698 51.5509 77.1944C50.4577 76.9062 46.0779 76.9062 46.0779 76.9062C44.252 76.8854 42.4266 76.9768 40.6119 77.1798C40.3198 77.2608 40.0522 77.4128 39.833 77.6222C39.6176 77.8294 39.4616 78.085 39.3801 78.365C39.1844 79.4196 39.0892 80.4905 39.0961 81.5631C39.0891 82.6348 39.184 83.7053 39.3801 84.7612C39.4599 85.0401 39.6153 85.2944 39.8313 85.4999C40.0472 85.7054 40.3162 85.8539 40.6119 85.9324C41.7196 86.22 46.0779 86.22 46.0779 86.22C47.9061 86.2408 49.7339 86.1494 51.5509 85.9464C51.843 85.871 52.1111 85.7223 52.3298 85.5145C52.5452 85.309 52.6983 85.0535 52.7751 84.7752C52.976 83.721 53.0737 82.6497 53.0668 81.5765C53.0819 80.4988 52.9843 79.4224 52.7757 78.365V78.3656ZM44.6855 83.5563V79.5705L48.3295 81.5637L44.6855 83.5563Z" fill="#E71D36"/>
</g>
<rect x="39.3829" y="73.7648" width="13.3886" height="14.5528" stroke="#EEF6FF" stroke-width="0.582112"/>
<rect opacity="0.1" x="30.6236" y="112.39" width="30.7184" height="30.7184" rx="15.3592" fill="#5A92FF" stroke="#EEF6FF" stroke-width="0.520652"/>
<path d="M46.0796 124.936C45.5641 124.935 45.065 125.117 44.6706 125.449C44.2762 125.781 44.012 126.242 43.9249 126.75C43.8377 127.258 43.9332 127.78 44.1944 128.225C44.4556 128.669 44.8657 129.007 45.352 129.178C45.3485 129.219 45.3485 129.261 45.352 129.302V133.668C45.352 133.86 45.4287 134.046 45.5651 134.182C45.7016 134.318 45.8867 134.395 46.0796 134.395C46.2726 134.395 46.4577 134.318 46.5942 134.182C46.7306 134.046 46.8073 133.86 46.8073 133.668V129.302C46.8108 129.261 46.8108 129.219 46.8073 129.178C47.2936 129.007 47.7037 128.669 47.9649 128.225C48.2261 127.78 48.3216 127.258 48.2344 126.75C48.1472 126.242 47.8831 125.781 47.4887 125.449C47.0943 125.117 46.5952 124.935 46.0796 124.936ZM39.8947 127.119C39.9146 126.382 40.0971 125.659 40.4292 125.001C40.7613 124.343 41.2348 123.767 41.8157 123.313C41.9643 123.19 42.0577 123.012 42.0755 122.82C42.0932 122.627 42.0338 122.436 41.9103 122.287C41.8491 122.214 41.7741 122.153 41.6894 122.108C41.6048 122.064 41.5121 122.036 41.4169 122.027C41.2245 122.01 41.0329 122.069 40.8843 122.193C40.138 122.782 39.5316 123.529 39.1089 124.381C38.6861 125.233 38.4575 126.168 38.4394 127.119C38.4575 128.07 38.6861 129.004 39.1089 129.856C39.5316 130.708 40.138 131.456 40.8843 132.045C40.9579 132.106 41.0428 132.152 41.1342 132.18C41.2255 132.209 41.3216 132.219 41.4169 132.21C41.5121 132.201 41.6048 132.174 41.6894 132.129C41.7741 132.085 41.8491 132.024 41.9103 131.95C41.9714 131.877 42.0175 131.792 42.0458 131.7C42.0742 131.609 42.0842 131.513 42.0755 131.418C42.0667 131.322 42.0392 131.23 41.9946 131.145C41.9501 131.061 41.8893 130.985 41.8157 130.924C41.2348 130.471 40.7613 129.894 40.4292 129.237C40.0971 128.579 39.9146 127.855 39.8947 127.119Z" fill="url(#paint1_linear_112_468)"/>
<path d="M49.458 123.655C49.3091 123.556 49.1291 123.516 48.9521 123.541C48.7752 123.566 48.6138 123.656 48.4987 123.793C48.3836 123.929 48.3228 124.104 48.3279 124.282C48.3331 124.461 48.4038 124.631 48.5266 124.761C48.8862 125.043 49.1795 125.4 49.3857 125.807C49.5919 126.215 49.706 126.662 49.7199 127.119C49.706 127.575 49.5919 128.023 49.3857 128.43C49.1795 128.838 48.8862 129.195 48.5266 129.476C48.414 129.573 48.3335 129.701 48.2958 129.844C48.2581 129.987 48.265 130.139 48.3156 130.278C48.3663 130.417 48.4582 130.538 48.5791 130.623C48.7 130.709 48.8442 130.756 48.9923 130.757C49.1632 130.755 49.3281 130.693 49.458 130.582C49.983 130.168 50.4094 129.643 50.7064 129.044C51.0034 128.445 51.1635 127.787 51.1752 127.119C51.1635 126.45 51.0034 125.793 50.7064 125.194C50.4094 124.595 49.983 124.069 49.458 123.655ZM43.7242 123.743C43.6 123.597 43.4234 123.506 43.2328 123.49C43.0421 123.473 42.8526 123.533 42.7055 123.655C42.1805 124.069 41.7541 124.595 41.4571 125.194C41.1601 125.793 40.9999 126.45 40.9883 127.119C40.9999 127.787 41.1601 128.445 41.4571 129.044C41.7541 129.643 42.1805 130.168 42.7055 130.582C42.8526 130.705 43.0421 130.764 43.2328 130.748C43.4234 130.731 43.6 130.641 43.7242 130.495C43.8465 130.348 43.9059 130.158 43.8896 129.968C43.8732 129.777 43.7825 129.601 43.6369 129.476C43.2773 129.195 42.984 128.838 42.7778 128.43C42.5715 128.023 42.4574 127.575 42.4435 127.119C42.4574 126.662 42.5715 126.215 42.7778 125.807C42.984 125.4 43.2773 125.043 43.6369 124.761C43.7825 124.637 43.8732 124.46 43.8896 124.27C43.9059 124.079 43.8465 123.89 43.7242 123.743Z" fill="url(#paint2_linear_112_468)"/>
<path d="M51.2762 122.193C51.2027 122.131 51.1178 122.085 51.0264 122.057C50.935 122.029 50.8389 122.019 50.7437 122.027C50.6484 122.036 50.5558 122.064 50.4711 122.108C50.3865 122.153 50.3114 122.214 50.2503 122.287C50.1891 122.361 50.143 122.446 50.1147 122.537C50.0864 122.628 50.0763 122.725 50.0851 122.82C50.0939 122.915 50.1213 123.008 50.1659 123.092C50.2105 123.177 50.2713 123.252 50.3449 123.313C50.9258 123.767 51.3992 124.343 51.7313 125.001C52.0634 125.659 52.246 126.382 52.2658 127.119C52.246 127.855 52.0634 128.579 51.7313 129.237C51.3992 129.894 50.9258 130.471 50.3449 130.924C50.1963 131.048 50.1028 131.225 50.0851 131.418C50.0673 131.61 50.1268 131.802 50.2503 131.95C50.3738 132.099 50.5513 132.192 50.7437 132.21C50.9361 132.228 51.1276 132.168 51.2762 132.045C52.0226 131.456 52.6289 130.708 53.0517 129.856C53.4744 129.004 53.7031 128.07 53.7211 127.119C53.7031 126.168 53.4744 125.233 53.0517 124.381C52.6289 123.529 52.0226 122.782 51.2762 122.193Z" fill="url(#paint3_linear_112_468)"/>
<rect x="37.6406" y="119.406" width="16.8813" height="16.8813" stroke="#EEF6FF" stroke-width="0.582112"/>
<path d="M189.353 76.1565H174.104C174.104 76.1565 174.105 76.1565 174.105 76.1564C174.105 76.1547 173.971 76.1294 173.801 75.7813C173.635 75.4398 173.515 74.9259 173.515 74.3256C173.515 73.7254 173.635 73.2115 173.801 72.8699C173.971 72.5219 174.105 72.4966 174.105 72.4948C174.105 72.4948 174.104 72.4947 174.104 72.4947H189.353C189.352 72.4947 189.352 72.4948 189.352 72.4948C189.352 72.4966 189.485 72.5219 189.655 72.8699C189.822 73.2115 189.942 73.7254 189.942 74.3256C189.942 74.9259 189.822 75.4398 189.655 75.7813C189.485 76.1294 189.352 76.1547 189.352 76.1564C189.352 76.1565 189.352 76.1565 189.353 76.1565ZM204.608 86.3048L174.104 86.3048C174.104 86.3048 174.105 86.3048 174.105 86.3047C174.105 86.303 173.971 86.2777 173.801 85.9296C173.635 85.5881 173.515 85.0742 173.515 84.4739C173.515 83.8737 173.635 83.3598 173.801 83.0182C173.971 82.6702 174.105 82.6449 174.105 82.6431C174.105 82.643 174.104 82.643 174.104 82.643H204.608C204.607 82.643 204.607 82.643 204.607 82.6431C204.607 82.6449 204.741 82.6702 204.91 83.0182C205.077 83.3598 205.197 83.8737 205.197 84.4739C205.197 85.0742 205.077 85.5881 204.91 85.9296C204.741 86.2777 204.607 86.303 204.607 86.3047C204.607 86.3048 204.607 86.3048 204.608 86.3048ZM174.104 92.7914H186.978C186.977 92.7915 186.977 92.7915 186.977 92.7916C186.977 92.7933 187.111 92.8186 187.28 93.1666C187.447 93.5082 187.567 94.022 187.567 94.6222V94.6222C187.567 95.2224 187.447 95.7363 187.28 96.0779C187.111 96.4259 186.977 96.4512 186.977 96.4529C186.977 96.453 186.977 96.453 186.978 96.453H174.104C174.104 96.453 174.105 96.453 174.105 96.4529C174.105 96.4512 173.971 96.4259 173.801 96.0779C173.635 95.7363 173.515 95.2224 173.515 94.6222V94.6222C173.515 94.022 173.635 93.5082 173.801 93.1666C173.971 92.8186 174.105 92.7933 174.105 92.7916C174.105 92.7915 174.104 92.7915 174.104 92.7914ZM192.035 92.7914H218.447C218.446 92.7915 218.446 92.7915 218.446 92.7916C218.446 92.7933 218.58 92.8186 218.749 93.1666C218.916 93.5082 219.036 94.022 219.036 94.6222C219.036 95.2224 218.916 95.7363 218.749 96.0779C218.58 96.4259 218.446 96.4512 218.446 96.4529C218.446 96.453 218.446 96.453 218.447 96.453H192.035C192.036 96.453 192.036 96.453 192.036 96.4529C192.037 96.4512 191.903 96.4259 191.733 96.0779C191.567 95.7363 191.447 95.2224 191.447 94.6222V94.6222C191.447 94.022 191.567 93.5082 191.733 93.1666C191.903 92.8186 192.037 92.7933 192.036 92.7916C192.036 92.7915 192.036 92.7915 192.035 92.7914Z" fill="#EEF6FF" stroke="#EEF6FF" stroke-width="1.19792"/>
<path d="M82.5693 76.1463C82.5654 76.1503 82.562 76.1537 82.5589 76.1565H69.7486C69.7456 76.1537 69.7421 76.1503 69.7383 76.1464C69.6893 76.0961 69.6175 75.9923 69.5446 75.8154C69.3997 75.4643 69.2962 74.938 69.2962 74.3256C69.2962 73.7133 69.3997 73.1869 69.5446 72.8359C69.6175 72.6589 69.6893 72.5552 69.7383 72.5049C69.7421 72.501 69.7456 72.4976 69.7486 72.4947H82.5589C82.562 72.4976 82.5654 72.501 82.5693 72.5049C82.6183 72.5552 82.69 72.6589 82.763 72.8359C82.9078 73.1869 83.0113 73.7133 83.0113 74.3256C83.0113 74.938 82.9078 75.4643 82.763 75.8154C82.69 75.9923 82.6183 76.0961 82.5693 76.1463ZM82.5429 76.1701C82.5421 76.1706 82.5417 76.1709 82.5417 76.1708L82.5429 76.1701ZM69.7647 72.4812C69.7655 72.4806 69.7659 72.4804 69.7659 72.4804C69.7659 72.4805 69.7655 72.4807 69.7647 72.4812ZM95.4776 86.2946C95.4738 86.2986 95.4703 86.302 95.4673 86.3048L69.7486 86.3048C69.7456 86.302 69.7421 86.2986 69.7383 86.2946C69.6893 86.2444 69.6175 86.1406 69.5446 85.9637C69.3997 85.6126 69.2962 85.0863 69.2962 84.4739C69.2962 83.8616 69.3997 83.3352 69.5446 82.9842C69.6175 82.8072 69.6893 82.7034 69.7383 82.6532C69.7421 82.6492 69.7456 82.6459 69.7486 82.643H95.4673C95.4703 82.6459 95.4738 82.6492 95.4776 82.6532C95.5266 82.7034 95.5984 82.8072 95.6714 82.9842C95.8162 83.3352 95.9197 83.8616 95.9197 84.4739C95.9197 85.0863 95.8162 85.6126 95.6714 85.9637C95.5984 86.1406 95.5266 86.2444 95.4776 86.2946ZM69.7659 82.6287C69.7659 82.6287 69.7655 82.629 69.7647 82.6295L69.7659 82.6287ZM95.4512 86.3184C95.4504 86.3189 95.45 86.3191 95.45 86.3191L95.4512 86.3184ZM69.7382 92.8016C69.7421 92.7977 69.7455 92.7943 69.7486 92.7914H80.5495C80.5525 92.7943 80.556 92.7977 80.5598 92.8016C80.6088 92.8519 80.6805 92.9556 80.7535 93.1326C80.8983 93.4836 81.0018 94.0099 81.0018 94.6222V94.6222C81.0018 95.2345 80.8983 95.7609 80.7535 96.1119C80.6805 96.2888 80.6088 96.3926 80.5598 96.4429C80.556 96.4468 80.5525 96.4502 80.5495 96.453H69.7486C69.7455 96.4502 69.7421 96.4468 69.7382 96.4429C69.6892 96.3926 69.6175 96.2888 69.5445 96.1119C69.3997 95.7609 69.2962 95.2345 69.2962 94.6222V94.6222C69.2962 94.0099 69.3997 93.4836 69.5445 93.1325C69.6175 92.9556 69.6892 92.8519 69.7382 92.8016ZM80.5322 96.4673C80.5322 96.4673 80.5326 96.467 80.5336 96.4665L80.5322 96.4673ZM69.7646 92.7779C69.7655 92.7774 69.7659 92.7771 69.7659 92.7772L69.7646 92.7779ZM84.9112 92.8016C84.915 92.7977 84.9185 92.7943 84.9215 92.7914H107.177C107.18 92.7943 107.184 92.7977 107.188 92.8016C107.237 92.8519 107.308 92.9556 107.381 93.1325C107.526 93.4836 107.63 94.0099 107.63 94.6222C107.63 95.2345 107.526 95.7609 107.381 96.1119C107.308 96.2888 107.237 96.3926 107.188 96.4429C107.184 96.4468 107.18 96.4502 107.177 96.453H84.9215C84.9185 96.4502 84.915 96.4468 84.9112 96.4429C84.8622 96.3926 84.7905 96.2888 84.7175 96.1119C84.5727 95.7609 84.4692 95.2345 84.4692 94.6222V94.6222C84.4692 94.0099 84.5727 93.4836 84.7175 93.1326C84.7905 92.9556 84.8622 92.8519 84.9112 92.8016ZM107.16 92.7772C107.16 92.7772 107.16 92.7774 107.161 92.778L107.16 92.7772ZM107.16 96.4673C107.16 96.4673 107.16 96.467 107.161 96.4665L107.16 96.4673ZM84.9376 92.7779C84.9384 92.7774 84.9388 92.7771 84.9388 92.7772L84.9376 92.7779Z" fill="#EEF6FF" stroke="#EEF6FF" stroke-width="1.19792"/>
<path d="M189.353 120.479H174.104C174.104 120.479 174.105 120.479 174.105 120.479C174.105 120.478 173.971 120.452 173.801 120.104C173.635 119.763 173.515 119.249 173.515 118.649C173.515 118.048 173.635 117.534 173.801 117.193C173.971 116.845 174.105 116.82 174.105 116.818C174.105 116.818 174.104 116.818 174.104 116.818H189.353C189.352 116.818 189.352 116.818 189.352 116.818C189.352 116.82 189.485 116.845 189.655 117.193C189.822 117.534 189.942 118.048 189.942 118.649C189.942 119.249 189.822 119.763 189.655 120.104C189.485 120.452 189.352 120.478 189.352 120.479C189.352 120.479 189.352 120.479 189.353 120.479ZM204.608 130.628L174.104 130.628C174.104 130.628 174.105 130.628 174.105 130.628C174.105 130.626 173.971 130.601 173.801 130.253C173.635 129.911 173.515 129.397 173.515 128.797C173.515 128.197 173.635 127.683 173.801 127.341C173.971 126.993 174.105 126.968 174.105 126.966C174.105 126.966 174.104 126.966 174.104 126.966H204.608C204.607 126.966 204.607 126.966 204.607 126.966C204.607 126.968 204.741 126.993 204.91 127.341C205.077 127.683 205.197 128.197 205.197 128.797C205.197 129.397 205.077 129.911 204.91 130.253C204.741 130.601 204.607 130.626 204.607 130.628C204.607 130.628 204.607 130.628 204.608 130.628ZM174.104 137.114H186.978C186.977 137.114 186.977 137.114 186.977 137.114C186.977 137.116 187.111 137.142 187.28 137.49C187.447 137.831 187.567 138.345 187.567 138.945V138.945C187.567 139.545 187.447 140.059 187.28 140.401C187.111 140.749 186.977 140.774 186.977 140.776C186.977 140.776 186.977 140.776 186.978 140.776H174.104C174.104 140.776 174.105 140.776 174.105 140.776C174.105 140.774 173.971 140.749 173.801 140.401C173.635 140.059 173.515 139.545 173.515 138.945V138.945C173.515 138.345 173.635 137.831 173.801 137.49C173.971 137.142 174.105 137.116 174.105 137.114C174.105 137.114 174.104 137.114 174.104 137.114ZM192.035 137.114H218.447C218.446 137.114 218.446 137.114 218.446 137.114C218.446 137.116 218.58 137.142 218.749 137.49C218.916 137.831 219.036 138.345 219.036 138.945C219.036 139.545 218.916 140.059 218.749 140.401C218.58 140.749 218.446 140.774 218.446 140.776C218.446 140.776 218.446 140.776 218.447 140.776H192.035C192.036 140.776 192.036 140.776 192.036 140.776C192.037 140.774 191.903 140.749 191.733 140.401C191.567 140.059 191.447 139.545 191.447 138.945V138.945C191.447 138.345 191.567 137.831 191.733 137.49C191.903 137.142 192.037 137.116 192.036 137.114C192.036 137.114 192.036 137.114 192.035 137.114Z" fill="#EEF6FF" stroke="#EEF6FF" stroke-width="1.19792"/>
<path d="M82.5693 120.469C82.5654 120.473 82.562 120.477 82.5589 120.479H69.7486C69.7456 120.477 69.7421 120.473 69.7383 120.469C69.6893 120.419 69.6175 120.315 69.5446 120.138C69.3997 119.787 69.2962 119.261 69.2962 118.649C69.2962 118.036 69.3997 117.51 69.5446 117.159C69.6175 116.982 69.6893 116.878 69.7383 116.828C69.7421 116.824 69.7456 116.821 69.7486 116.818H82.5589C82.562 116.821 82.5654 116.824 82.5693 116.828C82.6183 116.878 82.69 116.982 82.763 117.159C82.9078 117.51 83.0113 118.036 83.0113 118.649C83.0113 119.261 82.9078 119.787 82.763 120.138C82.69 120.315 82.6183 120.419 82.5693 120.469ZM82.5429 120.493C82.5421 120.494 82.5417 120.494 82.5417 120.494L82.5429 120.493ZM69.7647 116.804C69.7655 116.804 69.7659 116.803 69.7659 116.803C69.7659 116.803 69.7655 116.804 69.7647 116.804ZM95.4776 130.618C95.4738 130.622 95.4703 130.625 95.4673 130.628L69.7486 130.628C69.7456 130.625 69.7421 130.622 69.7383 130.618C69.6893 130.567 69.6175 130.464 69.5446 130.287C69.3997 129.936 69.2962 129.409 69.2962 128.797C69.2962 128.185 69.3997 127.658 69.5446 127.307C69.6175 127.13 69.6893 127.026 69.7383 126.976C69.7421 126.972 69.7456 126.969 69.7486 126.966H95.4673C95.4703 126.969 95.4738 126.972 95.4776 126.976C95.5266 127.026 95.5984 127.13 95.6714 127.307C95.8162 127.658 95.9197 128.185 95.9197 128.797C95.9197 129.409 95.8162 129.936 95.6714 130.287C95.5984 130.464 95.5266 130.567 95.4776 130.618ZM69.7659 126.952C69.7659 126.952 69.7655 126.952 69.7647 126.952L69.7659 126.952ZM95.4512 130.641C95.4504 130.642 95.45 130.642 95.45 130.642L95.4512 130.641ZM69.7382 137.125C69.7421 137.121 69.7455 137.117 69.7486 137.114H80.5495C80.5525 137.117 80.556 137.121 80.5598 137.125C80.6088 137.175 80.6805 137.279 80.7535 137.455C80.8983 137.807 81.0018 138.333 81.0018 138.945V138.945C81.0018 139.557 80.8983 140.084 80.7535 140.435C80.6805 140.612 80.6088 140.716 80.5598 140.766C80.556 140.77 80.5525 140.773 80.5495 140.776H69.7486C69.7455 140.773 69.7421 140.77 69.7382 140.766C69.6892 140.716 69.6175 140.612 69.5445 140.435C69.3997 140.084 69.2962 139.557 69.2962 138.945V138.945C69.2962 138.333 69.3997 137.807 69.5445 137.455C69.6175 137.279 69.6892 137.175 69.7382 137.125ZM80.5322 140.79C80.5322 140.79 80.5326 140.79 80.5336 140.789L80.5322 140.79ZM69.7646 137.101C69.7655 137.1 69.7659 137.1 69.7659 137.1L69.7646 137.101ZM84.9112 137.125C84.915 137.121 84.9185 137.117 84.9215 137.114H107.177C107.18 137.117 107.184 137.121 107.188 137.125C107.237 137.175 107.308 137.279 107.381 137.455C107.526 137.807 107.63 138.333 107.63 138.945C107.63 139.557 107.526 140.084 107.381 140.435C107.308 140.612 107.237 140.716 107.188 140.766C107.184 140.77 107.18 140.773 107.177 140.776H84.9215C84.9185 140.773 84.915 140.77 84.9112 140.766C84.8622 140.716 84.7905 140.612 84.7175 140.435C84.5727 140.084 84.4692 139.557 84.4692 138.945V138.945C84.4692 138.333 84.5727 137.807 84.7175 137.455C84.7905 137.279 84.8622 137.175 84.9112 137.125ZM107.16 137.1C107.16 137.1 107.16 137.1 107.161 137.101L107.16 137.1ZM107.16 140.79C107.16 140.79 107.16 140.79 107.161 140.789L107.16 140.79ZM84.9376 137.101C84.9384 137.1 84.9388 137.1 84.9388 137.1L84.9376 137.101Z" fill="#EEF6FF" stroke="#EEF6FF" stroke-width="1.19792"/>
<path d="M189.353 164.802H174.104C174.104 164.802 174.105 164.802 174.105 164.802C174.105 164.801 173.971 164.775 173.801 164.427C173.635 164.086 173.515 163.572 173.515 162.972C173.515 162.371 173.635 161.857 173.801 161.516C173.971 161.168 174.105 161.142 174.105 161.141C174.105 161.141 174.104 161.141 174.104 161.141H189.353C189.352 161.141 189.352 161.141 189.352 161.141C189.352 161.142 189.485 161.168 189.655 161.516C189.822 161.857 189.942 162.371 189.942 162.972C189.942 163.572 189.822 164.086 189.655 164.427C189.485 164.775 189.352 164.801 189.352 164.802C189.352 164.802 189.352 164.802 189.353 164.802ZM204.608 174.951L174.104 174.951C174.104 174.951 174.105 174.951 174.105 174.951C174.105 174.949 173.971 174.924 173.801 174.575C173.635 174.234 173.515 173.72 173.515 173.12C173.515 172.52 173.635 172.006 173.801 171.664C173.971 171.316 174.105 171.291 174.105 171.289C174.105 171.289 174.104 171.289 174.104 171.289H204.608C204.607 171.289 204.607 171.289 204.607 171.289C204.607 171.291 204.741 171.316 204.91 171.664C205.077 172.006 205.197 172.52 205.197 173.12C205.197 173.72 205.077 174.234 204.91 174.575C204.741 174.924 204.607 174.949 204.607 174.951C204.607 174.951 204.607 174.951 204.608 174.951ZM174.104 181.437H186.978C186.977 181.437 186.977 181.437 186.977 181.437C186.977 181.439 187.111 181.464 187.28 181.812C187.447 182.154 187.567 182.668 187.567 183.268V183.268C187.567 183.868 187.447 184.382 187.28 184.724C187.111 185.072 186.977 185.097 186.977 185.099C186.977 185.099 186.977 185.099 186.978 185.099H174.104C174.104 185.099 174.105 185.099 174.105 185.099C174.105 185.097 173.971 185.072 173.801 184.724C173.635 184.382 173.515 183.868 173.515 183.268V183.268C173.515 182.668 173.635 182.154 173.801 181.812C173.971 181.464 174.105 181.439 174.105 181.437C174.105 181.437 174.104 181.437 174.104 181.437ZM192.035 181.437H218.447C218.446 181.437 218.446 181.437 218.446 181.437C218.446 181.439 218.58 181.464 218.749 181.812C218.916 182.154 219.036 182.668 219.036 183.268C219.036 183.868 218.916 184.382 218.749 184.724C218.58 185.072 218.446 185.097 218.446 185.099C218.446 185.099 218.446 185.099 218.447 185.099H192.035C192.036 185.099 192.036 185.099 192.036 185.099C192.037 185.097 191.903 185.072 191.733 184.724C191.567 184.382 191.447 183.868 191.447 183.268V183.268C191.447 182.668 191.567 182.154 191.733 181.812C191.903 181.464 192.037 181.439 192.036 181.437C192.036 181.437 192.036 181.437 192.035 181.437Z" fill="#EEF6FF" stroke="#EEF6FF" stroke-width="1.19792"/>
<path d="M82.5693 164.792C82.5654 164.796 82.562 164.8 82.5589 164.802H69.7486C69.7456 164.8 69.7421 164.796 69.7383 164.792C69.6893 164.742 69.6175 164.638 69.5446 164.461C69.3997 164.11 69.2962 163.584 69.2962 162.972C69.2962 162.359 69.3997 161.833 69.5446 161.482C69.6175 161.305 69.6893 161.201 69.7383 161.151C69.7421 161.147 69.7456 161.143 69.7486 161.141H82.5589C82.562 161.143 82.5654 161.147 82.5693 161.151C82.6183 161.201 82.69 161.305 82.763 161.482C82.9078 161.833 83.0113 162.359 83.0113 162.972C83.0113 163.584 82.9078 164.11 82.763 164.461C82.69 164.638 82.6183 164.742 82.5693 164.792ZM82.5429 164.816C82.5421 164.816 82.5417 164.817 82.5417 164.817L82.5429 164.816ZM69.7647 161.127C69.7655 161.127 69.7659 161.126 69.7659 161.126C69.7659 161.126 69.7655 161.127 69.7647 161.127ZM95.4776 174.941C95.4738 174.944 95.4703 174.948 95.4673 174.951L69.7486 174.951C69.7456 174.948 69.7421 174.944 69.7383 174.941C69.6893 174.89 69.6175 174.786 69.5446 174.61C69.3997 174.259 69.2962 173.732 69.2962 173.12C69.2962 172.507 69.3997 171.981 69.5446 171.63C69.6175 171.453 69.6893 171.349 69.7383 171.299C69.7421 171.295 69.7456 171.292 69.7486 171.289H95.4673C95.4703 171.292 95.4738 171.295 95.4776 171.299C95.5266 171.349 95.5984 171.453 95.6714 171.63C95.8162 171.981 95.9197 172.507 95.9197 173.12C95.9197 173.732 95.8162 174.259 95.6714 174.61C95.5984 174.786 95.5266 174.89 95.4776 174.941ZM69.7659 171.275C69.7659 171.275 69.7655 171.275 69.7647 171.275L69.7659 171.275ZM95.4512 174.964C95.4504 174.965 95.45 174.965 95.45 174.965L95.4512 174.964ZM69.7382 181.447C69.7421 181.444 69.7455 181.44 69.7486 181.437H80.5495C80.5525 181.44 80.556 181.444 80.5598 181.447C80.6088 181.498 80.6805 181.602 80.7535 181.778C80.8983 182.129 81.0018 182.656 81.0018 183.268V183.268C81.0018 183.88 80.8983 184.407 80.7535 184.758C80.6805 184.935 80.6088 185.038 80.5598 185.089C80.556 185.093 80.5525 185.096 80.5495 185.099H69.7486C69.7455 185.096 69.7421 185.093 69.7382 185.089C69.6892 185.038 69.6175 184.935 69.5445 184.758C69.3997 184.407 69.2962 183.88 69.2962 183.268V183.268C69.2962 182.656 69.3997 182.129 69.5445 181.778C69.6175 181.602 69.6892 181.498 69.7382 181.447ZM80.5322 185.113C80.5322 185.113 80.5326 185.113 80.5336 185.112L80.5322 185.113ZM69.7646 181.424C69.7655 181.423 69.7659 181.423 69.7659 181.423L69.7646 181.424ZM84.9112 181.448C84.915 181.444 84.9185 181.44 84.9215 181.437H107.177C107.18 181.44 107.184 181.444 107.188 181.447C107.237 181.498 107.308 181.602 107.381 181.778C107.526 182.129 107.63 182.656 107.63 183.268C107.63 183.88 107.526 184.407 107.381 184.758C107.308 184.935 107.237 185.038 107.188 185.089C107.184 185.093 107.18 185.096 107.177 185.099H84.9215C84.9185 185.096 84.915 185.093 84.9112 185.089C84.8622 185.038 84.7905 184.935 84.7175 184.758C84.5727 184.407 84.4692 183.88 84.4692 183.268V183.268C84.4692 182.656 84.5727 182.129 84.7175 181.778C84.7905 181.602 84.8622 181.498 84.9112 181.448ZM107.16 181.423C107.16 181.423 107.16 181.423 107.161 181.424L107.16 181.423ZM107.16 185.113C107.16 185.113 107.16 185.113 107.161 185.112L107.16 185.113ZM84.9376 181.424C84.9384 181.423 84.9388 181.423 84.9388 181.423L84.9376 181.424Z" fill="#EEF6FF" stroke="#EEF6FF" stroke-width="1.19792"/>
<defs>
<linearGradient id="paint0_linear_112_468" x1="142.189" y1="75.1946" x2="150.596" y2="75.0879" gradientUnits="userSpaceOnUse">
<stop stop-color="#2F69FF"/>
<stop offset="1" stop-color="#367CFF"/>
</linearGradient>
<linearGradient id="paint1_linear_112_468" x1="38.4394" y1="122.024" x2="48.0012" y2="121.895" gradientUnits="userSpaceOnUse">
<stop stop-color="#2F69FF"/>
<stop offset="1" stop-color="#367CFF"/>
</linearGradient>
<linearGradient id="paint2_linear_112_468" x1="40.9883" y1="123.487" x2="50.897" y2="123.25" gradientUnits="userSpaceOnUse">
<stop stop-color="#2F69FF"/>
<stop offset="1" stop-color="#367CFF"/>
</linearGradient>
<linearGradient id="paint3_linear_112_468" x1="50.082" y1="122.024" x2="53.6236" y2="122.003" gradientUnits="userSpaceOnUse">
<stop stop-color="#2F69FF"/>
<stop offset="1" stop-color="#367CFF"/>
</linearGradient>
<clipPath id="clip0_112_468">
<rect x="139.07" y="168.756" width="10.187" height="11.6423" fill="white"/>
</clipPath>
<clipPath id="clip1_112_468">
<rect x="137.322" y="120.787" width="13.9707" height="13.9707" fill="white"/>
</clipPath>
<clipPath id="clip2_112_468">
<rect x="137.883" y="75.1946" width="12.9583" height="11.6423" fill="white"/>
</clipPath>
<clipPath id="clip3_112_468">
<rect x="39.0918" y="73.4737" width="13.9707" height="15.1349" fill="white"/>
</clipPath>
</defs>
</svg>
