<svg width="36" height="36" viewBox="0 0 36 36" fill="none" xmlns="http://www.w3.org/2000/svg">
<path d="M18 0C8.05887 0 0 8.05887 0 18C0 27.9411 8.05887 36 18 36C27.9411 36 36 27.9411 36 18C35.9884 8.06367 27.9363 0.0115721 18 0Z" fill="white" fill-opacity="0.3"/>
<path d="M26.2255 13.2469L17.7691 24.7351C17.5674 25.003 17.2667 25.1785 16.9345 25.2222C16.6022 25.266 16.2664 25.1742 16.0024 24.9676L9.96369 20.1344C9.43081 19.7075 9.34452 18.929 9.77096 18.3955C10.1974 17.8621 10.9751 17.7757 11.508 18.2026L16.5435 22.2357L24.2365 11.7838C24.4888 11.4049 24.9287 11.1954 25.3815 11.2385C25.8344 11.2816 26.2269 11.5703 26.4033 11.9901C26.5797 12.4099 26.5114 12.8927 26.2255 13.2469Z" fill="white"/>
</svg>
