<svg width="20" height="21" viewBox="0 0 20 21" fill="none" xmlns="http://www.w3.org/2000/svg">
<path d="M0 1.5C0 0.947715 0.447715 0.5 1 0.5H19C19.5523 0.5 20 0.947715 20 1.5V19.5C20 20.0523 19.5523 20.5 19 20.5H1C0.447715 20.5 0 20.0523 0 19.5V1.5Z" fill="#F3F3F3"/>
<path d="M1 2.5H19V-1.5H1V2.5ZM18 1.5V19.5H22V1.5H18ZM19 18.5H1V22.5H19V18.5ZM2 19.5V1.5H-2V19.5H2ZM1 18.5C1.55228 18.5 2 18.9477 2 19.5H-2C-2 21.1569 -0.656853 22.5 1 22.5V18.5ZM18 19.5C18 18.9477 18.4477 18.5 19 18.5V22.5C20.6569 22.5 22 21.1569 22 19.5H18ZM19 2.5C18.4477 2.5 18 2.05229 18 1.5H22C22 -0.156855 20.6569 -1.5 19 -1.5V2.5ZM1 -1.5C-0.656855 -1.5 -2 -0.156853 -2 1.5H2C2 2.05228 1.55229 2.5 1 2.5V-1.5Z" fill="url(#paint0_linear_269_2826)"/>
<defs>
<linearGradient id="paint0_linear_269_2826" x1="0" y1="0.5" x2="19.4593" y2="0.167822" gradientUnits="userSpaceOnUse">
<stop offset="0" stop-color="#ff3737"/>
<stop offset="1" stop-color="#f92c2c"/>
</linearGradient>
</defs>
</svg>
