<svg width="1920" height="871" viewBox="0 0 1920 871" fill="none" xmlns="http://www.w3.org/2000/svg">
<g filter="url(#filter0_f_1_555)">
<ellipse rx="686" ry="685.5" transform="matrix(-1 8.74228e-08 8.74228e-08 1 48 823.5)" fill="url(#paint0_radial_1_555)" fill-opacity="0.8"/>
</g>
<g filter="url(#filter1_f_1_555)">
<circle cx="1480.96" cy="407.964" r="620.203" transform="rotate(10.1696 1480.96 407.964)" fill="url(#paint1_radial_1_555)" fill-opacity="0.8"/>
</g>
<path d="M0 386.996L22.8 413.222C45.7333 438.467 92 492.388 137.333 530.869C182.8 570.82 228 595.329 274.667 543.859C320 492.388 365.333 360.036 412 360.771C457.2 360.036 502.667 492.388 548 530.869C594.267 570.82 640 516.898 685.333 543.859C731.467 570.82 777.333 673.761 822.667 635.28C868.533 595.33 914.667 413.957 960 426.212C1005.73 438.467 1052 534.122 1097.33 637.799C1142.8 742.456 1188 742.456 1234.67 677.014C1286.34 614.375 1311.56 589.872 1367.13 555.372C1425.74 523.711 1462.67 570.82 1508 517.633C1554.27 465.428 1600 308.565 1645.33 282.34C1691.47 257.095 1737.33 360.036 1782.67 374.006C1828.53 386.996 1874.67 308.565 1897.33 269.349L1920 230.134V877.584H1897.2C1874.27 877.584 1828 877.584 1782.67 877.584C1737.2 877.584 1692 877.584 1645.33 877.584C1600 877.584 1554.67 877.584 1508 877.584C1462.8 877.584 1417.33 877.584 1372 877.584C1325.73 877.584 1280 877.584 1234.67 877.584C1188.53 877.584 1142.67 877.584 1097.33 877.584C1051.47 877.584 1005.33 877.584 960 877.584C914.267 877.584 868 877.584 822.667 877.584C777.2 877.584 732 877.584 685.333 877.584C640 877.584 594.667 877.584 548 877.584C502.8 877.584 457.333 877.584 412 877.584C365.733 877.584 320 877.584 274.667 877.584C228.533 877.584 182.667 877.584 137.333 877.584C91.4667 877.584 45.3333 877.584 22.6667 877.584H0V386.996Z" fill="url(#paint2_linear_1_555)"/>
<path d="M0 389.02L22.8 414.549C45.7333 439.123 92 491.612 137.333 529.07C182.8 567.959 228 591.818 274.667 541.715C320 491.612 365.333 362.776 412 363.492C457.2 362.776 502.667 491.612 548 529.07C594.267 567.959 640 515.47 685.333 541.715C731.467 567.959 777.333 668.165 822.667 630.707C868.533 591.818 914.667 415.265 960 427.194C1005.73 439.123 1052 532.237 1097.33 633.158C1142.8 735.034 1188 735.034 1234.67 671.332C1286.34 610.357 1311.56 586.505 1367.13 552.922C1425.74 522.103 1462.67 567.959 1508 516.186C1554.27 465.368 1600 312.673 1645.33 287.145C1691.47 262.57 1737.33 362.776 1782.67 376.375C1828.53 389.02 1874.67 312.673 1897.33 274.5L1920 236.326" stroke="url(#paint3_linear_1_555)" stroke-width="11.6585" stroke-linecap="round"/>
<g filter="url(#filter2_f_1_555)">
<path d="M1958.01 426.985C1897.54 764.132 1575.2 988.417 1238.05 927.939C900.903 867.462 1193.11 746.044 1253.59 408.896C1314.07 71.749 167.09 -23.1038 679.09 -154.604C1016.24 -94.1258 2018.49 89.8371 1958.01 426.985Z" fill="#BFFFFB" fill-opacity="0.2"/>
</g>
<g filter="url(#filter3_f_1_555)">
<path d="M-418.707 470.346C-358.229 807.493 381.942 1011.37 719.089 950.896C1056.24 890.418 449.568 971.044 389.09 633.896C328.612 296.749 1341.09 -163.104 569.09 -163.104C231.942 -102.626 -479.185 133.198 -418.707 470.346Z" fill="#2365E6" fill-opacity="0.1"/>
</g>
<rect x="221.5" y="73" width="49" height="49" transform="rotate(45 221.5 73)" stroke="white" stroke-opacity="0.3"/>
<rect x="1557.82" y="781.973" width="43.5919" height="43.5919" transform="rotate(45 1557.82 781.973)" stroke="white" stroke-opacity="0.3"/>
<rect width="41.8937" height="41.8937" transform="matrix(0.707107 -0.707107 -0.707107 -0.707107 318.123 787.74)" stroke="white" stroke-opacity="0.3"/>
<rect width="37.27" height="37.27" transform="matrix(0.707107 -0.707107 -0.707107 -0.707107 1460.65 181.588)" stroke="white" stroke-opacity="0.3"/>
<rect x="1807.02" y="470.759" width="41.8937" height="41.8937" transform="rotate(-155.178 1807.02 470.759)" stroke="white" stroke-opacity="0.3"/>
<rect x="1509.02" y="631.759" width="41.8937" height="41.8937" transform="rotate(-155.178 1509.02 631.759)" stroke="white" stroke-opacity="0.3"/>
<rect x="105.827" y="471.621" width="37.27" height="37.27" transform="rotate(-155.178 105.827 471.621)" stroke="white" stroke-opacity="0.3"/>
<rect x="349.383" y="423.885" width="37.27" height="37.27" transform="rotate(-45 349.383 423.885)" stroke="white" stroke-opacity="0.3"/>
<defs>
<filter id="filter0_f_1_555" x="-648" y="128" width="1392" height="1391" filterUnits="userSpaceOnUse" color-interpolation-filters="sRGB">
<feFlood flood-opacity="0" result="BackgroundImageFix"/>
<feBlend mode="normal" in="SourceGraphic" in2="BackgroundImageFix" result="shape"/>
<feGaussianBlur stdDeviation="5" result="effect1_foregroundBlur_1_555"/>
</filter>
<filter id="filter1_f_1_555" x="850.656" y="-222.345" width="1260.62" height="1260.62" filterUnits="userSpaceOnUse" color-interpolation-filters="sRGB">
<feFlood flood-opacity="0" result="BackgroundImageFix"/>
<feBlend mode="normal" in="SourceGraphic" in2="BackgroundImageFix" result="shape"/>
<feGaussianBlur stdDeviation="5" result="effect1_foregroundBlur_1_555"/>
</filter>
<filter id="filter2_f_1_555" x="347.107" y="-354.604" width="1813.53" height="1492.39" filterUnits="userSpaceOnUse" color-interpolation-filters="sRGB">
<feFlood flood-opacity="0" result="BackgroundImageFix"/>
<feBlend mode="normal" in="SourceGraphic" in2="BackgroundImageFix" result="shape"/>
<feGaussianBlur stdDeviation="100" result="effect1_foregroundBlur_1_555"/>
</filter>
<filter id="filter3_f_1_555" x="-622.334" y="-363.104" width="1682.93" height="1524.58" filterUnits="userSpaceOnUse" color-interpolation-filters="sRGB">
<feFlood flood-opacity="0" result="BackgroundImageFix"/>
<feBlend mode="normal" in="SourceGraphic" in2="BackgroundImageFix" result="shape"/>
<feGaussianBlur stdDeviation="100" result="effect1_foregroundBlur_1_555"/>
</filter>
<radialGradient id="paint0_radial_1_555" cx="0" cy="0" r="1" gradientUnits="userSpaceOnUse" gradientTransform="translate(891.5 748) rotate(-157.741) scale(616.435 441.567)">
<stop stop-color="#5BC4FF" stop-opacity="0.15"/>
<stop offset="1" stop-color="#5BA6FF" stop-opacity="0"/>
</radialGradient>
<radialGradient id="paint1_radial_1_555" cx="0" cy="0" r="1" gradientUnits="userSpaceOnUse" gradientTransform="translate(1863.62 57.4301) rotate(136.735) scale(1148.29 822.584)">
<stop stop-color="#5B7FFF" stop-opacity="0.15"/>
<stop offset="1" stop-color="#5B89FF" stop-opacity="0"/>
</radialGradient>
<linearGradient id="paint2_linear_1_555" x1="-20.129" y1="260.494" x2="1920" y2="256.23" gradientUnits="userSpaceOnUse">
<stop stop-color="#5EC3FF" stop-opacity="0.07"/>
<stop offset="1" stop-color="#489BE9" stop-opacity="0.05"/>
</linearGradient>
<linearGradient id="paint3_linear_1_555" x1="-27.871" y1="236.326" x2="1947.87" y2="236.326" gradientUnits="userSpaceOnUse">
<stop stop-color="#2F80ED"/>
<stop offset="1" stop-color="#24C2FF"/>
</linearGradient>
</defs>
</svg>
