<svg width="375" height="640" viewBox="0 0 375 640" fill="none" xmlns="http://www.w3.org/2000/svg">
<path d="M-221.736 453.869L-212.017 465.048C-202.241 475.81 -182.518 498.796 -163.193 515.2C-143.811 532.23 -124.543 542.678 -104.649 520.737C-85.3243 498.796 -65.9993 442.376 -46.1059 442.689C-26.8377 442.376 -7.45586 498.796 11.8692 515.2C31.5921 532.23 51.0876 509.244 70.4127 520.737C90.0787 532.23 109.631 576.113 128.956 559.709C148.508 542.678 168.175 465.362 187.5 470.586C206.995 475.81 226.718 516.587 246.043 560.782C265.425 605.396 284.693 605.396 304.587 577.5C326.613 550.797 337.367 540.352 361.053 525.645C386.04 512.148 401.78 532.23 421.105 509.558C440.828 487.303 460.323 420.434 479.648 409.255C499.315 398.493 518.867 442.376 538.192 448.331C557.745 453.869 577.411 420.434 587.073 403.717L596.736 387V663H587.016C577.24 663 557.517 663 538.192 663C518.81 663 499.542 663 479.648 663C460.323 663 440.999 663 421.105 663C401.837 663 382.455 663 363.13 663C343.407 663 323.912 663 304.587 663C284.921 663 265.368 663 246.043 663C226.491 663 206.825 663 187.5 663C168.004 663 148.281 663 128.956 663C109.574 663 90.3061 663 70.4127 663C51.0876 663 31.7626 663 11.8692 663C-7.39902 663 -26.7809 663 -46.1059 663C-65.8288 663 -85.3243 663 -104.649 663C-124.315 663 -143.868 663 -163.193 663C-182.745 663 -202.411 663 -212.074 663H-221.736V453.869Z" fill="url(#paint0_linear_344_15054)"/>
<path d="M-221.736 454.731L-212.017 465.614C-202.241 476.09 -182.518 498.465 -163.193 514.433C-143.811 531.011 -124.543 541.181 -104.649 519.823C-85.3243 498.465 -65.9993 443.544 -46.1059 443.849C-26.8377 443.544 -7.45583 498.465 11.8692 514.433C31.5921 531.011 51.0876 508.635 70.4127 519.823C90.0787 531.011 109.631 573.727 128.956 557.759C148.509 541.181 168.175 465.919 187.5 471.004C206.995 476.09 226.718 515.783 246.043 558.804C265.425 602.233 284.693 602.233 304.587 575.077C326.613 549.085 337.367 538.917 361.053 524.6C386.04 511.463 401.78 531.011 421.105 508.941C440.828 487.277 460.324 422.186 479.649 411.303C499.315 400.827 518.867 443.544 538.192 449.341C557.745 454.731 577.411 422.186 587.073 405.913L596.736 389.64" stroke="url(#paint1_linear_344_15054)" stroke-width="5" stroke-linecap="round"/>
<rect x="351.5" y="33" width="49" height="49" transform="rotate(45 351.5 33)" stroke="white" stroke-opacity="0.3"/>
<rect x="237.787" y="96.561" width="35.628" height="35.628" transform="rotate(75 237.787 96.561)" stroke="white" stroke-opacity="0.3"/>
<rect x="297.787" y="496.561" width="35.628" height="35.628" transform="rotate(75 297.787 496.561)" stroke="white" stroke-opacity="0.3"/>
<rect x="49.6484" y="570.792" width="22.6271" height="22.6271" transform="rotate(15 49.6484 570.792)" stroke="white" stroke-opacity="0.3"/>
<rect width="41.8937" height="41.8937" transform="matrix(0.707107 -0.707107 -0.707107 -0.707107 -5.37646 260.247)" stroke="white" stroke-opacity="0.3"/>
<rect x="91.8267" y="117.473" width="37.27" height="37.27" transform="rotate(-155.178 91.8267 117.473)" stroke="white" stroke-opacity="0.3"/>
<rect x="339.383" y="373.885" width="37.27" height="37.27" transform="rotate(-45 339.383 373.885)" stroke="white" stroke-opacity="0.3"/>
<defs>
<linearGradient id="paint0_linear_344_15054" x1="-230.317" y1="399.942" x2="596.736" y2="398.124" gradientUnits="userSpaceOnUse">
<stop stop-color="#5EC3FF" stop-opacity="0.07"/>
<stop offset="1" stop-color="#489BE9" stop-opacity="0.05"/>
</linearGradient>
<linearGradient id="paint1_linear_344_15054" x1="-233.617" y1="389.64" x2="608.617" y2="389.64" gradientUnits="userSpaceOnUse">
<stop stop-color="#2F80ED"/>
<stop offset="1" stop-color="#24C2FF"/>
</linearGradient>
</defs>
</svg>
