<svg width="67" height="82" viewBox="0 0 67 82" fill="none" xmlns="http://www.w3.org/2000/svg">
<path d="M16.7646 16.4114V49.2343H33.5292C35.8268 49.2343 37.9881 48.815 40.0131 47.9763C42.0381 47.0995 43.8099 45.9177 45.3287 44.431C46.8474 42.9442 48.0352 41.2097 48.8919 39.2273C49.7876 37.2069 50.2354 35.0721 50.2354 32.8229C50.2354 30.5737 49.7876 28.4579 48.8919 26.4756C48.0352 24.4551 46.8474 22.7015 45.3287 21.2148C43.8099 19.728 42.0381 18.5653 40.0131 17.7266C37.9881 16.8498 35.8268 16.4114 33.5292 16.4114H16.7646ZM16.7646 82H0V0H33.5292C36.6056 0 39.5652 0.400279 42.408 1.20084C45.2508 1.96327 47.8989 3.06881 50.3522 4.51743C52.8445 5.92794 55.1032 7.64342 57.1282 9.66388C59.1921 11.6462 60.9445 13.8573 62.3854 16.2971C63.8652 18.7369 64.9945 21.3482 65.7733 24.1311C66.5911 26.914 67 29.8112 67 32.8229C67 37.3212 66.1238 41.5718 64.3714 45.5746C62.619 49.5393 60.2241 53.0084 57.1866 55.9819C54.1491 58.9554 50.5859 61.2999 46.4969 63.0153C42.447 64.7308 38.1244 65.5886 33.5292 65.5886H16.7646V82Z" fill="#00113B"/>
</svg>
