<svg width="375" height="246" viewBox="0 0 375 246" fill="none" xmlns="http://www.w3.org/2000/svg">
<path d="M-132 50.089L-125.383 57.0883C-118.727 63.826 -105.299 78.2171 -92.1424 88.4871C-78.9468 99.1496 -65.8286 105.691 -52.2847 91.9541C-39.1278 78.2171 -25.9709 42.8935 -12.4271 43.0897C0.691132 42.8935 13.8867 78.2171 27.0436 88.4871C40.4714 99.1496 53.7444 84.7585 66.9012 91.9541C80.2903 99.1496 93.602 126.624 106.759 116.354C120.071 105.691 133.46 57.2846 146.617 60.5553C159.89 63.826 173.317 89.3555 186.474 117.026C199.67 144.958 212.788 144.958 226.332 127.492C241.328 110.774 248.65 104.235 264.776 95.0267C281.787 86.5769 292.503 99.1496 305.66 84.9548C319.088 71.0215 332.361 29.1565 345.518 22.1572C358.907 15.4195 372.219 42.8935 385.375 46.6221C397.517 49.2909 411.399 28.2677 417.977 17.8014L425.814 5.03149L425.233 266H418.616C411.96 266 398.532 266 385.375 266C372.18 266 359.062 266 345.518 266C332.361 266 319.204 266 305.66 266C292.542 266 279.346 266 266.189 266C252.762 266 239.489 266 226.332 266C212.943 266 199.631 266 186.474 266C173.163 266 159.773 266 146.617 266C133.344 266 119.916 266 106.759 266C93.5633 266 80.4451 266 66.9012 266C53.7444 266 40.5875 266 27.0436 266C13.9254 266 0.729828 266 -12.4271 266C-25.8548 266 -39.1278 266 -52.2847 266C-65.6738 266 -78.9855 266 -92.1424 266C-105.454 266 -118.843 266 -125.422 266H-132V50.089Z" fill="url(#paint0_linear_344_15078)" fill-opacity="0.3"/>
<path d="M-132 46.9601L-125.383 54.3097C-118.727 61.3845 -105.299 76.4958 -92.1424 87.2798C-78.9468 98.4759 -65.8286 105.345 -52.2847 90.9202C-39.1278 76.4958 -25.9709 39.4045 -12.4271 39.6105C0.69112 39.4045 13.8867 76.4958 27.0436 87.2798C40.4714 98.4759 53.7443 83.3646 66.9012 90.9202C80.2903 98.4759 93.602 127.325 106.759 116.541C120.071 105.345 133.46 54.5158 146.617 57.9501C159.89 61.3845 173.317 88.1916 186.474 117.246C199.67 146.576 212.788 146.576 226.332 128.237C241.328 110.682 248.65 103.815 264.776 94.1466C281.787 85.274 292.503 98.4759 305.66 83.5706C319.088 68.9402 332.361 24.9801 345.518 17.6305C358.907 10.5556 372.219 39.4045 385.375 43.3197C398.687 46.9601 412.076 24.9801 418.655 13.99L425.233 3" stroke="url(#paint1_linear_344_15078)" stroke-width="5" stroke-linecap="round"/>
<defs>
<linearGradient id="paint0_linear_344_15078" x1="-137.842" y1="16.3268" x2="425.233" y2="14.9809" gradientUnits="userSpaceOnUse">
<stop stop-color="#5EC3FF" stop-opacity="0.1"/>
<stop offset="1" stop-color="#2F80ED" stop-opacity="0.37"/>
</linearGradient>
<linearGradient id="paint1_linear_344_15078" x1="-119.315" y1="115.255" x2="436.217" y2="106.075" gradientUnits="userSpaceOnUse">
<stop stop-color="white" stop-opacity="0.11"/>
<stop offset="1" stop-color="white" stop-opacity="0.25"/>
</linearGradient>
</defs>
</svg>
